<?xml version="1.0" encoding="iso-8859-1"?>
<!-- Generator: Adobe Illustrator 16.0.3, SVG Export Plug-In . SVG Version: 6.00 Build 0)  -->
<!DOCTYPE svg PUBLIC "-//W3C//DTD SVG 1.1//EN" "http://www.w3.org/Graphics/SVG/1.1/DTD/svg11.dtd">
<svg version="1.1" id="&#x56FE;&#x5C42;_1" xmlns="http://www.w3.org/2000/svg" xmlns:xlink="http://www.w3.org/1999/xlink" x="0px"
	 y="0px" width="800px" height="600px" viewBox="0 0 800 600" style="enable-background:new 0 0 800 600;" xml:space="preserve">
<path style="fill:#DCF6FF;" d="M64.322,531.466h673.094c9.068,0,16.416-7.351,16.416-16.417H47.904
	C47.904,524.115,55.255,531.466,64.322,531.466z"/>
<path style="fill:#89E1FF;" d="M39.696,515.049h722.345c13.599,0,24.626-11.024,24.626-24.625H15.071
	C15.071,504.024,26.096,515.049,39.696,515.049z"/>
<path style="fill:#DCF6FF;" d="M663.539,127.61H401.354H138.199H56.598v73.215c-0.313,2.915-0.484,5.871-0.484,8.869v103.426
	v103.426v82.085h0.484h81.601h263.155h262.186h82.086v-82.085V313.121V209.695C745.625,164.359,708.874,127.61,663.539,127.61z"/>
<g id="&#x4E91;">
	
		<line style="fill:none;stroke:#DCF6FF;stroke-width:18;stroke-linecap:round;stroke-linejoin:round;stroke-miterlimit:10;" x1="298.604" y1="84.175" x2="360.27" y2="84.175"/>
	
		<line style="fill:none;stroke:#B8ECFC;stroke-width:18;stroke-linecap:round;stroke-linejoin:round;stroke-miterlimit:10;" x1="339.216" y1="104.491" x2="586.608" y2="104.491"/>
	
		<line style="fill:none;stroke:#B8ECFC;stroke-width:18;stroke-linecap:round;stroke-linejoin:round;stroke-miterlimit:10;" x1="441.911" y1="168.794" x2="536.624" y2="168.794"/>
	
		<line style="fill:none;stroke:#B8ECFC;stroke-width:18;stroke-linecap:round;stroke-linejoin:round;stroke-miterlimit:10;" x1="405.055" y1="284.859" x2="542.876" y2="284.859"/>
	
		<line style="fill:none;stroke:#B8ECFC;stroke-width:18;stroke-linecap:round;stroke-linejoin:round;stroke-miterlimit:10;" x1="561.251" y1="134.728" x2="692.417" y2="134.728"/>
	
		<line style="fill:none;stroke:#B8ECFC;stroke-width:18;stroke-linecap:round;stroke-linejoin:round;stroke-miterlimit:10;" x1="536.624" y1="233.98" x2="725.925" y2="233.98"/>
	
		<line style="fill:none;stroke:#B8ECFC;stroke-width:18;stroke-linecap:round;stroke-linejoin:round;stroke-miterlimit:10;" x1="218.622" y1="215.908" x2="378.776" y2="215.908"/>
	
		<line style="fill:none;stroke:#B8ECFC;stroke-width:18;stroke-linecap:round;stroke-linejoin:round;stroke-miterlimit:10;" x1="60.628" y1="138.763" x2="326.974" y2="138.763"/>
	
		<line style="fill:none;stroke:#B8ECFC;stroke-width:18;stroke-linecap:round;stroke-linejoin:round;stroke-miterlimit:10;" x1="138.442" y1="99.565" x2="239.393" y2="99.565"/>
</g>
<g id="&#x5730;&#x9762;">
	<g>
		<rect x="15.071" y="425.633" style="fill:#CDB7AA;stroke:#CDB7AA;stroke-miterlimit:10;" width="771.596" height="65.668"/>
		<rect x="15.07" y="433.842" style="fill:#BFA18E;" width="771.597" height="24.626"/>
		
			<line style="fill:#5F4A57;stroke:#5F4A57;stroke-width:10;stroke-linecap:round;stroke-linejoin:round;stroke-miterlimit:10;" x1="15.071" y1="425.633" x2="786.667" y2="425.633"/>
		
			<line style="fill:#5F4A57;stroke:#5F4A57;stroke-width:10;stroke-linecap:round;stroke-linejoin:round;stroke-miterlimit:10;" x1="15.071" y1="491.301" x2="786.667" y2="491.301"/>
	</g>
	<g>
		
			<line style="fill:none;stroke:#5F4A57;stroke-width:10;stroke-linecap:round;stroke-linejoin:round;stroke-miterlimit:10;" x1="75.814" y1="425.633" x2="75.814" y2="491.301"/>
		
			<line style="fill:none;stroke:#5F4A57;stroke-width:10;stroke-linecap:round;stroke-linejoin:round;stroke-miterlimit:10;" x1="129.99" y1="425.633" x2="129.99" y2="491.301"/>
		
			<line style="fill:none;stroke:#5F4A57;stroke-width:10;stroke-linecap:round;stroke-linejoin:round;stroke-miterlimit:10;" x1="184.166" y1="425.633" x2="184.166" y2="491.301"/>
		
			<line style="fill:none;stroke:#5F4A57;stroke-width:10;stroke-linecap:round;stroke-linejoin:round;stroke-miterlimit:10;" x1="238.342" y1="425.633" x2="238.342" y2="491.301"/>
		
			<line style="fill:none;stroke:#5F4A57;stroke-width:10;stroke-linecap:round;stroke-linejoin:round;stroke-miterlimit:10;" x1="292.518" y1="425.633" x2="292.518" y2="491.301"/>
		
			<line style="fill:none;stroke:#5F4A57;stroke-width:10;stroke-linecap:round;stroke-linejoin:round;stroke-miterlimit:10;" x1="346.693" y1="425.633" x2="346.693" y2="491.301"/>
		
			<line style="fill:none;stroke:#5F4A57;stroke-width:10;stroke-linecap:round;stroke-linejoin:round;stroke-miterlimit:10;" x1="400.87" y1="425.633" x2="400.87" y2="491.301"/>
		
			<line style="fill:none;stroke:#5F4A57;stroke-width:10;stroke-linecap:round;stroke-linejoin:round;stroke-miterlimit:10;" x1="455.045" y1="425.633" x2="455.045" y2="491.301"/>
		
			<line style="fill:none;stroke:#5F4A57;stroke-width:10;stroke-linecap:round;stroke-linejoin:round;stroke-miterlimit:10;" x1="509.221" y1="425.633" x2="509.221" y2="491.301"/>
		
			<line style="fill:none;stroke:#5F4A57;stroke-width:10;stroke-linecap:round;stroke-linejoin:round;stroke-miterlimit:10;" x1="563.397" y1="425.633" x2="563.397" y2="491.301"/>
		
			<line style="fill:none;stroke:#5F4A57;stroke-width:10;stroke-linecap:round;stroke-linejoin:round;stroke-miterlimit:10;" x1="617.572" y1="425.633" x2="617.572" y2="491.301"/>
		
			<line style="fill:none;stroke:#5F4A57;stroke-width:10;stroke-linecap:round;stroke-linejoin:round;stroke-miterlimit:10;" x1="671.748" y1="425.633" x2="671.748" y2="491.301"/>
		
			<line style="fill:none;stroke:#5F4A57;stroke-width:10;stroke-linecap:round;stroke-linejoin:round;stroke-miterlimit:10;" x1="725.925" y1="425.633" x2="725.925" y2="491.301"/>
	</g>
</g>
<g id="&#x5EFA;&#x7B51;1">
	<g id="&#x80CC;&#x666F;">
		<path style="fill:#FF6873;" d="M60.628,79.662c-7.253,0-13.133,5.88-13.133,13.134v26.267h26.267V92.795
			C73.762,85.542,67.882,79.662,60.628,79.662z"/>
		<rect x="47.495" y="119.063" style="fill:#FF878B;" width="26.267" height="39.4"/>
		<rect x="47.495" y="158.463" style="fill:#FF6873;" width="26.267" height="39.401"/>
		<rect x="47.495" y="197.864" style="fill:#FF878B;" width="26.267" height="62.384"/>
		<polyline style="fill:#FF6873;" points="10.961,424.415 45.437,424.415 102.896,424.415 102.896,260.248 45.437,260.248 
			45.437,355.464 10.961,355.464 		"/>
	</g>
	<rect id="&#x9AD8;&#x5149;" x="62.478" y="260.245" style="fill:#FF878B;" width="39.4" height="164.17"/>
	<g id="&#x52FE;&#x7EBF;">
		<path style="fill:none;stroke:#5F4A57;stroke-width:10;stroke-linecap:round;stroke-linejoin:round;stroke-miterlimit:10;" d="
			M60.628,79.662c-7.253,0-13.133,5.88-13.133,13.134v26.267h26.267V92.795C73.762,85.542,67.882,79.662,60.628,79.662z"/>
		
			<rect x="47.495" y="119.063" style="fill:none;stroke:#5F4A57;stroke-width:10;stroke-linecap:round;stroke-linejoin:round;stroke-miterlimit:10;" width="26.267" height="39.4"/>
		
			<rect x="47.495" y="158.463" style="fill:none;stroke:#5F4A57;stroke-width:10;stroke-linecap:round;stroke-linejoin:round;stroke-miterlimit:10;" width="26.267" height="39.401"/>
		
			<rect x="47.495" y="197.864" style="fill:none;stroke:#5F4A57;stroke-width:10;stroke-linecap:round;stroke-linejoin:round;stroke-miterlimit:10;" width="26.267" height="62.384"/>
		
			<polyline style="fill:none;stroke:#5F4A57;stroke-width:10;stroke-linecap:round;stroke-linejoin:round;stroke-miterlimit:10;" points="
			10.961,424.415 45.437,424.415 102.896,424.415 102.896,260.248 45.437,260.248 45.437,355.464 10.961,355.464 		"/>
		<g id="&#x7EC6;&#x8282;">
			
				<line style="fill:none;stroke:#5F4A57;stroke-width:10;stroke-linecap:round;stroke-linejoin:round;stroke-miterlimit:10;" x1="70.686" y1="424.419" x2="70.686" y2="382.956"/>
			
				<line style="fill:none;stroke:#5F4A57;stroke-width:10;stroke-linecap:round;stroke-linejoin:round;stroke-miterlimit:10;" x1="38.947" y1="377.353" x2="38.947" y2="392.807"/>
			<circle style="fill:#5F4A57;" cx="70.686" cy="289.379" r="8.208"/>
		</g>
	</g>
</g>
<g id="&#x5EFA;&#x7B51;2">
	<g id="&#x80CC;&#x666F;_1_">
		<rect x="118.479" y="201.145" style="fill:#FFBE80;" width="131.335" height="26.268"/>
		<rect x="102.062" y="227.413" style="fill:#FFBE80;" width="164.169" height="32.833"/>
		<path style="fill:#FFBE80;" d="M102.062,260.246v164.169h52.534V316.064c0-10.88,8.821-19.701,19.7-19.701h19.701
			c10.879,0,19.7,8.821,19.7,19.701v108.351h52.534V260.246H102.062z"/>
	</g>
	<g id="&#x9AD8;&#x5149;_1_">
		<rect x="122.583" y="196.208" style="fill:#FB9C6E;" width="61.563" height="39.401"/>
		<rect x="102.062" y="235.608" style="fill:#FB9C6E;" width="82.084" height="32.833"/>
		<rect x="102.062" y="268.442" style="fill:#FB9C6E;" width="27.909" height="164.168"/>
		<rect x="235.039" y="196.208" style="fill:#FDD5AB;" width="19.7" height="39.401"/>
		<rect x="235.039" y="235.608" style="fill:#FDD5AB;" width="29.55" height="197.002"/>
	</g>
	<g id="&#x52FE;&#x7EBF;_1_">
		
			<rect x="118.479" y="201.145" style="fill:none;stroke:#5F4A57;stroke-width:10;stroke-linecap:round;stroke-linejoin:round;stroke-miterlimit:10;" width="131.335" height="26.268"/>
		
			<rect x="102.062" y="227.413" style="fill:none;stroke:#5F4A57;stroke-width:10;stroke-linecap:round;stroke-linejoin:round;stroke-miterlimit:10;" width="164.169" height="32.833"/>
		<path style="fill:none;stroke:#5F4A57;stroke-width:10;stroke-linecap:round;stroke-linejoin:round;stroke-miterlimit:10;" d="
			M102.062,260.246v164.169h52.534V316.064c0-10.88,8.821-19.701,19.7-19.701h19.701c10.879,0,19.7,8.821,19.7,19.701v108.351
			h52.534V260.246H102.062z"/>
		
			<line style="fill:#FFBE80;stroke:#5F4A57;stroke-width:10;stroke-linecap:round;stroke-linejoin:round;stroke-miterlimit:10;" x1="96.329" y1="355.464" x2="165.28" y2="355.464"/>
		
			<line style="fill:#FFBE80;stroke:#5F4A57;stroke-width:10;stroke-linecap:round;stroke-linejoin:round;stroke-miterlimit:10;" x1="96.329" y1="319.347" x2="165.28" y2="319.347"/>
		
			<line style="fill:#FFBE80;stroke:#5F4A57;stroke-width:10;stroke-linecap:round;stroke-linejoin:round;stroke-miterlimit:10;" x1="204.68" y1="355.464" x2="273.632" y2="355.464"/>
		
			<line style="fill:#FFBE80;stroke:#5F4A57;stroke-width:10;stroke-linecap:round;stroke-linejoin:round;stroke-miterlimit:10;" x1="204.68" y1="319.347" x2="273.632" y2="319.347"/>
		
			<line style="fill:none;stroke:#5F4A57;stroke-width:10;stroke-linecap:round;stroke-linejoin:round;stroke-miterlimit:10;" x1="149.671" y1="188.012" x2="218.622" y2="188.012"/>
		<g id="&#x7EC6;&#x8282;_1_">
			<circle style="fill:#5F4A57;" cx="130.804" cy="289.379" r="8.208"/>
			<circle style="fill:#5F4A57;" cx="238.322" cy="289.379" r="8.208"/>
		</g>
	</g>
</g>
<g id="&#x5EFA;&#x7B51;3">
	<g id="&#x80CC;&#x666F;_2_">
		<rect x="299.065" y="227.413" style="fill:#E1584E;" width="55.817" height="91.934"/>
		<rect x="266.231" y="319.347" style="fill:#7CC9F0;" width="174.019" height="105.068"/>
		<path style="fill:#FFA263;" d="M354.796,227.413c0.052-1.627,0.086-3.266,0.086-4.925c0-36.268-27.908-65.667-27.908-65.667
			s-27.909,29.399-27.909,65.667c0,1.66,0.036,3.298,0.086,4.925H354.796z"/>
	</g>
	<g id="&#x9AD8;&#x5149;_2_">
		<path style="fill:#FDB967;" d="M326.974,227.413h27.822c0.052-1.627,0.086-3.266,0.086-4.925
			c0-36.268-27.908-65.667-27.908-65.667V227.413z"/>
		<rect x="326.974" y="227.413" style="fill:#ED6E65;" width="27.908" height="91.934"/>
		<rect x="400.87" y="319.347" style="fill:#A5D9F4;" width="41.042" height="105.068"/>
		<rect x="268.694" y="319.347" style="fill:#51B2E8;" width="60.743" height="105.068"/>
	</g>
	<g id="&#x52FE;&#x7EBF;_2_">
		
			<rect x="299.065" y="227.413" style="fill:none;stroke:#5F4A57;stroke-width:10;stroke-linecap:round;stroke-linejoin:round;stroke-miterlimit:10;" width="55.817" height="91.934"/>
		
			<rect x="266.231" y="319.347" style="fill:none;stroke:#5F4A57;stroke-width:10;stroke-linecap:round;stroke-linejoin:round;stroke-miterlimit:10;" width="174.019" height="105.068"/>
		<path style="fill:none;stroke:#5F4A57;stroke-width:10;stroke-linecap:round;stroke-linejoin:round;stroke-miterlimit:10;" d="
			M354.796,227.413c0.052-1.627,0.086-3.266,0.086-4.925c0-36.268-27.908-65.667-27.908-65.667s-27.909,29.399-27.909,65.667
			c0,1.66,0.036,3.298,0.086,4.925H354.796z"/>
		
			<line style="fill:none;stroke:#5F4A57;stroke-width:10;stroke-linecap:round;stroke-linejoin:round;stroke-miterlimit:10;" x1="326.974" y1="154.357" x2="326.974" y2="129.732"/>
		
			<line style="fill:none;stroke:#5F4A57;stroke-width:10;stroke-linecap:round;stroke-linejoin:round;stroke-miterlimit:10;" x1="290.856" y1="227.413" x2="363.09" y2="227.413"/>
		<g id="&#x7EC6;&#x8282;_2_">
			
				<line style="fill:none;stroke:#5F4A57;stroke-width:10;stroke-linecap:round;stroke-linejoin:round;stroke-miterlimit:10;" x1="301.426" y1="319.814" x2="301.426" y2="338.553"/>
			
				<line style="fill:none;stroke:#5F4A57;stroke-width:10;stroke-linecap:round;stroke-linejoin:round;stroke-miterlimit:10;" x1="335.969" y1="319.814" x2="335.969" y2="338.553"/>
			
				<line style="fill:none;stroke:#5F4A57;stroke-width:10;stroke-linecap:round;stroke-linejoin:round;stroke-miterlimit:10;" x1="370.513" y1="319.814" x2="370.513" y2="338.553"/>
			
				<line style="fill:none;stroke:#5F4A57;stroke-width:10;stroke-linecap:round;stroke-linejoin:round;stroke-miterlimit:10;" x1="405.055" y1="319.814" x2="405.055" y2="338.553"/>
			
				<line style="fill:none;stroke:#5F4A57;stroke-width:10;stroke-linecap:round;stroke-linejoin:round;stroke-miterlimit:10;" x1="301.426" y1="382.622" x2="301.426" y2="424.419"/>
			
				<line style="fill:none;stroke:#5F4A57;stroke-width:10;stroke-linecap:round;stroke-linejoin:round;stroke-miterlimit:10;" x1="335.969" y1="382.622" x2="335.969" y2="401.361"/>
			
				<line style="fill:none;stroke:#5F4A57;stroke-width:10;stroke-linecap:round;stroke-linejoin:round;stroke-miterlimit:10;" x1="370.513" y1="382.622" x2="370.513" y2="401.361"/>
			
				<line style="fill:none;stroke:#5F4A57;stroke-width:10;stroke-linecap:round;stroke-linejoin:round;stroke-miterlimit:10;" x1="405.055" y1="382.622" x2="405.055" y2="401.361"/>
			<circle style="fill:#5F4A57;" cx="326.974" cy="289.379" r="8.208"/>
			
				<line style="fill:none;stroke:#5F4A57;stroke-width:10;stroke-linecap:round;stroke-linejoin:round;stroke-miterlimit:10;" x1="326.974" y1="227.413" x2="326.974" y2="257.093"/>
		</g>
	</g>
</g>
<g id="&#x5EFA;&#x7B51;4">
	<g id="&#x80CC;&#x666F;_3_">
		<path style="fill:#FDB967;" d="M467.675,71.657c-15.413,0-27.908,12.496-27.908,27.909h55.817
			C495.584,84.153,483.088,71.657,467.675,71.657z"/>
		<rect x="439.767" y="98.129" style="fill:#FDB967;" width="55.817" height="45.967"/>
		<rect x="439.767" y="144.097" style="fill:#FFA264;" width="55.817" height="213.419"/>
		<rect x="439.767" y="357.516" style="fill:#FFA264;" width="55.817" height="68.951"/>
	</g>
	<rect id="&#x9AD8;&#x5149;_3_" x="467.675" y="144.097" style="fill:#FFB961;" width="27.909" height="213.419"/>
	<g id="&#x52FE;&#x7EBF;_3_">
		<path style="fill:none;stroke:#5F4A57;stroke-width:10;stroke-linecap:round;stroke-linejoin:round;stroke-miterlimit:10;" d="
			M467.675,70.221c-15.413,0-27.908,12.495-27.908,27.909h55.817C495.584,82.716,483.088,70.221,467.675,70.221z"/>
		
			<rect x="439.767" y="98.129" style="fill:none;stroke:#5F4A57;stroke-width:10;stroke-linecap:round;stroke-linejoin:round;stroke-miterlimit:10;" width="55.817" height="45.967"/>
		
			<rect x="439.767" y="144.097" style="fill:none;stroke:#5F4A57;stroke-width:10;stroke-linecap:round;stroke-linejoin:round;stroke-miterlimit:10;" width="55.817" height="213.419"/>
		
			<rect x="439.767" y="357.516" style="fill:none;stroke:#5F4A57;stroke-width:10;stroke-linecap:round;stroke-linejoin:round;stroke-miterlimit:10;" width="55.817" height="68.951"/>
		
			<line style="fill:none;stroke:#5F4A57;stroke-width:10;stroke-linecap:round;stroke-linejoin:round;stroke-miterlimit:10;" x1="431.558" y1="98.129" x2="503.792" y2="98.129"/>
		
			<line style="fill:none;stroke:#5F4A57;stroke-width:10;stroke-linecap:round;stroke-linejoin:round;stroke-miterlimit:10;" x1="467.675" y1="66.117" x2="467.675" y2="41.491"/>
		<g id="&#x7EC6;&#x8282;_5_">
			
				<line style="fill:none;stroke:#5F4A57;stroke-width:10;stroke-linecap:round;stroke-linejoin:round;stroke-miterlimit:10;" x1="467.675" y1="244.25" x2="467.675" y2="262.989"/>
			
				<line style="fill:none;stroke:#5F4A57;stroke-width:10;stroke-linecap:round;stroke-linejoin:round;stroke-miterlimit:10;" x1="467.675" y1="185.953" x2="467.675" y2="212.624"/>
			
				<line style="fill:none;stroke:#5F4A57;stroke-width:10;stroke-linecap:round;stroke-linejoin:round;stroke-miterlimit:10;" x1="467.675" y1="125.358" x2="467.675" y2="144.097"/>
		</g>
	</g>
</g>
<g id="&#x5EFA;&#x7B51;5">
	<g id="&#x80CC;&#x666F;_4_">
		<rect x="520.209" y="233.98" style="fill:#F3B28B;" width="73.876" height="59.102"/>
		<rect x="495.584" y="293.903" style="fill:#E1584E;" width="98.501" height="131.336"/>
	</g>
	<g id="&#x9AD8;&#x5149;_4_">
		<rect x="563.397" y="243.831" style="fill:#FED2AD;" width="24.624" height="39.4"/>
		<rect x="542.876" y="284.859" style="fill:#FF878B;" width="41.041" height="131.335"/>
	</g>
	<g id="&#x52FE;&#x7EBF;_4_">
		
			<rect x="520.209" y="233.98" style="fill:none;stroke:#5F4A57;stroke-width:10;stroke-linecap:round;stroke-linejoin:round;stroke-miterlimit:10;" width="73.876" height="59.102"/>
		
			<rect x="495.584" y="293.903" style="fill:none;stroke:#5F4A57;stroke-width:10;stroke-linecap:round;stroke-linejoin:round;stroke-miterlimit:10;" width="98.501" height="131.336"/>
		<g id="&#x7EC6;&#x8282;_3_">
			
				<line style="fill:none;stroke:#5F4A57;stroke-width:10;stroke-linecap:round;stroke-linejoin:round;stroke-miterlimit:10;" x1="528.418" y1="353.848" x2="528.418" y2="363.217"/>
			
				<line style="fill:none;stroke:#5F4A57;stroke-width:10;stroke-linecap:round;stroke-linejoin:round;stroke-miterlimit:10;" x1="561.251" y1="353.848" x2="561.251" y2="363.217"/>
			
				<line style="fill:none;stroke:#5F4A57;stroke-width:10;stroke-linecap:round;stroke-linejoin:round;stroke-miterlimit:10;" x1="561.251" y1="386.25" x2="561.251" y2="425.803"/>
			<circle style="fill:#5F4A57;" cx="528.416" cy="386.248" r="8.208"/>
			
				<line style="fill:none;stroke:#5F4A57;stroke-width:10;stroke-linecap:round;stroke-linejoin:round;stroke-miterlimit:10;" x1="528.418" y1="321.447" x2="528.418" y2="330.816"/>
			
				<line style="fill:none;stroke:#5F4A57;stroke-width:10;stroke-linecap:round;stroke-linejoin:round;stroke-miterlimit:10;" x1="561.251" y1="321.447" x2="561.251" y2="330.816"/>
		</g>
	</g>
</g>
<g id="&#x5EFA;&#x7B51;6">
	<g id="&#x80CC;&#x666F;_5_">
		<path style="fill:#FED27F;" d="M648.092,110.647h-16.418c-10.879,0-19.7,8.821-19.7,19.701v16.417h55.818v-16.417
			C667.792,119.468,658.971,110.647,648.092,110.647z"/>
		<polygon style="fill:#FED27F;" points="667.792,179.598 667.792,146.764 611.974,146.764 611.974,179.598 595.557,179.598 
			595.557,212.432 684.208,212.432 684.208,179.598 		"/>
		<rect x="595.557" y="206.412" style="fill:#FED27F;" width="88.651" height="213.417"/>
		<rect x="595.557" y="356.9" style="fill:#8B7E88;" width="88.651" height="68.951"/>
	</g>
	<g id="&#x9AD8;&#x5149;_5_">
		<polygon style="fill:#FFE6A5;" points="667.792,146.971 651.375,146.971 651.375,212.432 684.208,212.432 684.208,179.598 
			667.792,179.598 		"/>
		<rect x="651.375" y="212.624" style="fill:#FFE6A5;" width="32.833" height="144.469"/>
		<rect x="651.375" y="356.9" style="fill:#9E909D;" width="32.833" height="68.951"/>
		<path style="fill:#FFE6A5;" d="M648.092,110.647h-16.418c-6.586,0-12.4,3.244-15.978,8.208h15.978
			c10.88,0,19.701,8.821,19.701,19.7v8.209h16.417v-16.417C667.792,119.468,658.971,110.647,648.092,110.647z"/>
	</g>
	<g id="&#x52FE;&#x7EBF;_5_">
		<path style="fill:none;stroke:#5F4A57;stroke-width:10;stroke-linecap:round;stroke-linejoin:round;stroke-miterlimit:10;" d="
			M648.092,110.647h-16.418c-10.879,0-19.7,8.821-19.7,19.701v16.417h55.818v-16.417
			C667.792,119.468,658.971,110.647,648.092,110.647z"/>
		
			<polygon style="fill:none;stroke:#5F4A57;stroke-width:10;stroke-linecap:round;stroke-linejoin:round;stroke-miterlimit:10;" points="
			667.792,179.598 667.792,146.764 611.974,146.764 611.974,179.598 595.557,179.598 595.557,212.432 684.208,212.432 
			684.208,179.598 		"/>
		<rect x="595.557" y="356.9" style="fill:none;" width="88.651" height="68.951"/>
		
			<rect x="595.557" y="212.432" style="fill:none;stroke:#5F4A57;stroke-width:10;stroke-linecap:round;stroke-linejoin:round;stroke-miterlimit:10;" width="88.651" height="213.419"/>
		
			<line style="fill:none;stroke:#5F4A57;stroke-width:10;stroke-linecap:round;stroke-linejoin:round;stroke-miterlimit:10;" x1="639.883" y1="110.237" x2="639.883" y2="85.611"/>
		
			<line style="fill:none;stroke:#5F4A57;stroke-width:10;stroke-linecap:round;stroke-linejoin:round;stroke-miterlimit:10;" x1="603.766" y1="146.764" x2="676.001" y2="146.764"/>
		
			<line style="fill:none;stroke:#5F4A57;stroke-width:10;stroke-linecap:round;stroke-linejoin:round;stroke-miterlimit:10;" x1="587.35" y1="212.432" x2="692.417" y2="212.432"/>
		<g id="&#x7EC6;&#x8282;_6_">
			
				<line style="fill:none;stroke:#5F4A57;stroke-width:10;stroke-linecap:round;stroke-linejoin:round;stroke-miterlimit:10;" x1="639.883" y1="270.641" x2="639.883" y2="289.379"/>
			
				<line style="fill:none;stroke:#5F4A57;stroke-width:10;stroke-linecap:round;stroke-linejoin:round;stroke-miterlimit:10;" x1="639.883" y1="168.794" x2="639.883" y2="187.532"/>
			<circle style="fill:#5F4A57;" cx="639.883" cy="242.188" r="8.209"/>
			
				<line style="fill:none;stroke:#5F4A57;stroke-width:10;stroke-linecap:round;stroke-linejoin:round;stroke-miterlimit:10;" x1="639.883" y1="317.288" x2="639.883" y2="336.026"/>
		</g>
	</g>
</g>
<g id="&#x5EFA;&#x7B51;7">
	<g id="&#x80CC;&#x666F;_6_">
		<rect x="684.208" y="294.722" style="fill:#968895;" width="82.085" height="62.384"/>
		<rect x="684.208" y="357.105" style="fill:#F2B38C;" width="105.068" height="68.951"/>
	</g>
	<g id="&#x9AD8;&#x5149;_6_">
		<rect x="732.491" y="293.903" style="fill:#9E909D;" width="41.042" height="62.385"/>
		<rect x="732.491" y="356.288" style="fill:#FED2AD;" width="57.459" height="68.951"/>
	</g>
	<g id="&#x52FE;&#x7EBF;_6_">
		
			<rect x="684.208" y="294.722" style="fill:none;stroke:#5F4A57;stroke-width:10;stroke-linecap:round;stroke-linejoin:round;stroke-miterlimit:10;" width="82.085" height="62.384"/>
		
			<line style="fill:none;stroke:#5F4A57;stroke-width:10;stroke-linecap:round;stroke-linejoin:round;stroke-miterlimit:10;" x1="684.208" y1="294.722" x2="782.71" y2="294.722"/>
		
			<polyline style="fill:none;stroke:#5F4A57;stroke-width:10;stroke-linecap:round;stroke-linejoin:round;stroke-miterlimit:10;" points="
			789.276,426.057 684.208,426.057 684.208,357.105 789.276,357.105 		"/>
		<g id="&#x7EC6;&#x8282;_4_">
			
				<line style="fill:none;stroke:#5F4A57;stroke-width:10;stroke-linecap:round;stroke-linejoin:round;stroke-miterlimit:10;" x1="708.834" y1="320.411" x2="708.834" y2="329.78"/>
			
				<line style="fill:none;stroke:#5F4A57;stroke-width:10;stroke-linecap:round;stroke-linejoin:round;stroke-miterlimit:10;" x1="741.668" y1="320.411" x2="741.668" y2="329.78"/>
			
				<line style="fill:none;stroke:#5F4A57;stroke-width:10;stroke-linecap:round;stroke-linejoin:round;stroke-miterlimit:10;" x1="741.668" y1="389.774" x2="741.668" y2="399.144"/>
			
				<line style="fill:none;stroke:#5F4A57;stroke-width:10;stroke-linecap:round;stroke-linejoin:round;stroke-miterlimit:10;" x1="708.834" y1="389.774" x2="708.834" y2="426.057"/>
			
				<line style="fill:none;stroke:#5F4A57;stroke-width:10;stroke-linecap:round;stroke-linejoin:round;stroke-miterlimit:10;" x1="774.501" y1="389.774" x2="774.501" y2="399.144"/>
		</g>
	</g>
</g>
</svg>
