<?xml version="1.0" encoding="utf-8"?>
<!-- Generator: Adobe Illustrator 16.0.3, SVG Export Plug-In . SVG Version: 6.00 Build 0)  -->
<!DOCTYPE svg PUBLIC "-//W3C//DTD SVG 1.1//EN" "http://www.w3.org/Graphics/SVG/1.1/DTD/svg11.dtd">
<svg version="1.1" id="图层_1" xmlns="http://www.w3.org/2000/svg" xmlns:xlink="http://www.w3.org/1999/xlink" x="0px" y="0px"
	 width="800px" height="600px" viewBox="0 0 800 600" enable-background="new 0 0 800 600" xml:space="preserve">
<path fill="#DCF6FF" d="M202.457,431.462h410c5.523,0,10-4.478,10-10h-430C192.457,426.984,196.934,431.462,202.457,431.462z"/>
<path fill="#89E1FF" d="M187.457,421.462h440c8.283,0,15-6.716,15-15h-470C172.457,414.746,179.172,421.462,187.457,421.462z"/>
<path fill="#DCF6FF" d="M567.457,185.462H407.752H247.457h-49.705v44.598c-0.191,1.775-0.295,3.576-0.295,5.402v63v63v50h0.295
	h49.705h160.295h159.705h50v-50v-63v-63C617.457,207.847,595.071,185.462,567.457,185.462z"/>
<g id="云">
	
		<line fill="none" stroke="#DCF6FF" stroke-width="18" stroke-linecap="round" stroke-linejoin="round" stroke-miterlimit="10" x1="345.165" y1="159.004" x2="382.727" y2="159.004"/>
	
		<line fill="none" stroke="#B8ECFC" stroke-width="18" stroke-linecap="round" stroke-linejoin="round" stroke-miterlimit="10" x1="369.902" y1="171.379" x2="520.596" y2="171.379"/>
	
		<line fill="none" stroke="#B8ECFC" stroke-width="18" stroke-linecap="round" stroke-linejoin="round" stroke-miterlimit="10" x1="432.457" y1="210.548" x2="490.149" y2="210.548"/>
	
		<line fill="none" stroke="#B8ECFC" stroke-width="18" stroke-linecap="round" stroke-linejoin="round" stroke-miterlimit="10" x1="410.007" y1="281.247" x2="493.957" y2="281.247"/>
	
		<line fill="none" stroke="#B8ECFC" stroke-width="18" stroke-linecap="round" stroke-linejoin="round" stroke-miterlimit="10" x1="505.15" y1="189.797" x2="585.047" y2="189.797"/>
	
		<line fill="none" stroke="#B8ECFC" stroke-width="18" stroke-linecap="round" stroke-linejoin="round" stroke-miterlimit="10" x1="490.149" y1="250.255" x2="605.457" y2="250.255"/>
	
		<line fill="none" stroke="#B8ECFC" stroke-width="18" stroke-linecap="round" stroke-linejoin="round" stroke-miterlimit="10" x1="296.445" y1="239.247" x2="394" y2="239.247"/>
	
		<line fill="none" stroke="#B8ECFC" stroke-width="18" stroke-linecap="round" stroke-linejoin="round" stroke-miterlimit="10" x1="200.207" y1="192.255" x2="362.445" y2="192.255"/>
	
		<line fill="none" stroke="#B8ECFC" stroke-width="18" stroke-linecap="round" stroke-linejoin="round" stroke-miterlimit="10" x1="247.605" y1="168.379" x2="309.098" y2="168.379"/>
</g>
<g id="地面">
	<g>
		<rect x="172.457" y="366.996" fill="#CDB7AA" stroke="#CDB7AA" stroke-miterlimit="10" width="470" height="40"/>
		<rect x="172.456" y="371.996" fill="#BFA18E" width="470.001" height="15"/>
		
			<line fill="#5F4A57" stroke="#5F4A57" stroke-width="10" stroke-linecap="round" stroke-linejoin="round" stroke-miterlimit="10" x1="172.457" y1="366.996" x2="642.457" y2="366.996"/>
		
			<line fill="#5F4A57" stroke="#5F4A57" stroke-width="10" stroke-linecap="round" stroke-linejoin="round" stroke-miterlimit="10" x1="172.457" y1="406.996" x2="642.457" y2="406.996"/>
	</g>
	<g>
		
			<line fill="none" stroke="#5F4A57" stroke-width="10" stroke-linecap="round" stroke-linejoin="round" stroke-miterlimit="10" x1="209.457" y1="366.996" x2="209.457" y2="406.996"/>
		
			<line fill="none" stroke="#5F4A57" stroke-width="10" stroke-linecap="round" stroke-linejoin="round" stroke-miterlimit="10" x1="242.457" y1="366.996" x2="242.457" y2="406.996"/>
		
			<line fill="none" stroke="#5F4A57" stroke-width="10" stroke-linecap="round" stroke-linejoin="round" stroke-miterlimit="10" x1="275.457" y1="366.996" x2="275.457" y2="406.996"/>
		
			<line fill="none" stroke="#5F4A57" stroke-width="10" stroke-linecap="round" stroke-linejoin="round" stroke-miterlimit="10" x1="308.457" y1="366.996" x2="308.457" y2="406.996"/>
		
			<line fill="none" stroke="#5F4A57" stroke-width="10" stroke-linecap="round" stroke-linejoin="round" stroke-miterlimit="10" x1="341.457" y1="366.996" x2="341.457" y2="406.996"/>
		
			<line fill="none" stroke="#5F4A57" stroke-width="10" stroke-linecap="round" stroke-linejoin="round" stroke-miterlimit="10" x1="374.457" y1="366.996" x2="374.457" y2="406.996"/>
		
			<line fill="none" stroke="#5F4A57" stroke-width="10" stroke-linecap="round" stroke-linejoin="round" stroke-miterlimit="10" x1="407.457" y1="366.996" x2="407.457" y2="406.996"/>
		
			<line fill="none" stroke="#5F4A57" stroke-width="10" stroke-linecap="round" stroke-linejoin="round" stroke-miterlimit="10" x1="440.457" y1="366.996" x2="440.457" y2="406.996"/>
		
			<line fill="none" stroke="#5F4A57" stroke-width="10" stroke-linecap="round" stroke-linejoin="round" stroke-miterlimit="10" x1="473.457" y1="366.996" x2="473.457" y2="406.996"/>
		
			<line fill="none" stroke="#5F4A57" stroke-width="10" stroke-linecap="round" stroke-linejoin="round" stroke-miterlimit="10" x1="506.457" y1="366.996" x2="506.457" y2="406.996"/>
		
			<line fill="none" stroke="#5F4A57" stroke-width="10" stroke-linecap="round" stroke-linejoin="round" stroke-miterlimit="10" x1="539.457" y1="366.996" x2="539.457" y2="406.996"/>
		
			<line fill="none" stroke="#5F4A57" stroke-width="10" stroke-linecap="round" stroke-linejoin="round" stroke-miterlimit="10" x1="572.457" y1="366.996" x2="572.457" y2="406.996"/>
		
			<line fill="none" stroke="#5F4A57" stroke-width="10" stroke-linecap="round" stroke-linejoin="round" stroke-miterlimit="10" x1="605.457" y1="366.996" x2="605.457" y2="406.996"/>
	</g>
</g>
<g id="建筑1">
	<g id="背景">
		<path fill="#FF6873" d="M200.207,156.255c-4.418,0-8,3.582-8,8v16h16v-16C208.207,159.837,204.625,156.255,200.207,156.255z"/>
		<rect x="192.207" y="180.255" fill="#FF878B" width="16" height="24"/>
		<rect x="192.207" y="204.255" fill="#FF6873" width="16" height="24"/>
		<rect x="192.207" y="228.255" fill="#FF878B" width="16" height="38"/>
		<polyline fill="#FF6873" points="169.953,366.254 190.953,366.254 225.953,366.254 225.953,266.255 190.953,266.255 
			190.953,324.254 169.953,324.254 		"/>
	</g>
	<rect id="高光" x="201.333" y="266.253" fill="#FF878B" width="24" height="100"/>
	<g id="勾线">
		<path fill="none" stroke="#5F4A57" stroke-width="10" stroke-linecap="round" stroke-linejoin="round" stroke-miterlimit="10" d="
			M200.207,156.255c-4.418,0-8,3.582-8,8v16h16v-16C208.207,159.837,204.625,156.255,200.207,156.255z"/>
		
			<rect x="192.207" y="180.255" fill="none" stroke="#5F4A57" stroke-width="10" stroke-linecap="round" stroke-linejoin="round" stroke-miterlimit="10" width="16" height="24"/>
		
			<rect x="192.207" y="204.255" fill="none" stroke="#5F4A57" stroke-width="10" stroke-linecap="round" stroke-linejoin="round" stroke-miterlimit="10" width="16" height="24"/>
		
			<rect x="192.207" y="228.255" fill="none" stroke="#5F4A57" stroke-width="10" stroke-linecap="round" stroke-linejoin="round" stroke-miterlimit="10" width="16" height="38"/>
		
			<polyline fill="none" stroke="#5F4A57" stroke-width="10" stroke-linecap="round" stroke-linejoin="round" stroke-miterlimit="10" points="
			169.953,366.254 190.953,366.254 225.953,366.254 225.953,266.255 190.953,266.255 190.953,324.254 169.953,324.254 		"/>
		<g id="细节">
			
				<line fill="none" stroke="#5F4A57" stroke-width="10" stroke-linecap="round" stroke-linejoin="round" stroke-miterlimit="10" x1="206.333" y1="366.256" x2="206.333" y2="341"/>
			
				<line fill="none" stroke="#5F4A57" stroke-width="10" stroke-linecap="round" stroke-linejoin="round" stroke-miterlimit="10" x1="187" y1="337.587" x2="187" y2="347"/>
			<circle fill="#5F4A57" cx="206.333" cy="284" r="5"/>
		</g>
	</g>
</g>
<g id="建筑2">
	<g id="背景_1_">
		<rect x="235.445" y="230.254" fill="#FFBE80" width="80" height="16"/>
		<rect x="225.445" y="246.254" fill="#FFBE80" width="100" height="20"/>
		<path fill="#FFBE80" d="M225.445,266.254v100h32v-66c0-6.627,5.373-12,12-12h12c6.627,0,12,5.373,12,12v66h32v-100H225.445z"/>
	</g>
	<g id="高光_1_">
		<rect x="237.945" y="227.247" fill="#FB9C6E" width="37.5" height="24"/>
		<rect x="225.445" y="251.247" fill="#FB9C6E" width="50" height="20"/>
		<rect x="225.445" y="271.247" fill="#FB9C6E" width="17" height="100"/>
		<rect x="306.445" y="227.247" fill="#FDD5AB" width="12" height="24"/>
		<rect x="306.445" y="251.247" fill="#FDD5AB" width="18" height="120"/>
	</g>
	<g id="勾线_1_">
		
			<rect x="235.445" y="230.254" fill="none" stroke="#5F4A57" stroke-width="10" stroke-linecap="round" stroke-linejoin="round" stroke-miterlimit="10" width="80" height="16"/>
		
			<rect x="225.445" y="246.254" fill="none" stroke="#5F4A57" stroke-width="10" stroke-linecap="round" stroke-linejoin="round" stroke-miterlimit="10" width="100" height="20"/>
		<path fill="none" stroke="#5F4A57" stroke-width="10" stroke-linecap="round" stroke-linejoin="round" stroke-miterlimit="10" d="
			M225.445,266.254v100h32v-66c0-6.627,5.373-12,12-12h12c6.627,0,12,5.373,12,12v66h32v-100H225.445z"/>
		
			<line fill="#FFBE80" stroke="#5F4A57" stroke-width="10" stroke-linecap="round" stroke-linejoin="round" stroke-miterlimit="10" x1="221.953" y1="324.254" x2="263.953" y2="324.254"/>
		
			<line fill="#FFBE80" stroke="#5F4A57" stroke-width="10" stroke-linecap="round" stroke-linejoin="round" stroke-miterlimit="10" x1="221.953" y1="302.254" x2="263.953" y2="302.254"/>
		
			<line fill="#FFBE80" stroke="#5F4A57" stroke-width="10" stroke-linecap="round" stroke-linejoin="round" stroke-miterlimit="10" x1="287.953" y1="324.254" x2="329.953" y2="324.254"/>
		
			<line fill="#FFBE80" stroke="#5F4A57" stroke-width="10" stroke-linecap="round" stroke-linejoin="round" stroke-miterlimit="10" x1="287.953" y1="302.254" x2="329.953" y2="302.254"/>
		
			<line fill="none" stroke="#5F4A57" stroke-width="10" stroke-linecap="round" stroke-linejoin="round" stroke-miterlimit="10" x1="254.445" y1="222.254" x2="296.445" y2="222.254"/>
		<g id="细节_1_">
			<circle fill="#5F4A57" cx="242.953" cy="284" r="5"/>
			<circle fill="#5F4A57" cx="308.445" cy="284" r="5"/>
		</g>
	</g>
</g>
<g id="建筑3">
	<g id="背景_2_">
		<rect x="345.445" y="246.254" fill="#E1584E" width="34" height="56"/>
		<rect x="325.445" y="302.254" fill="#7CC9F0" width="106" height="64"/>
		<path fill="#FFA263" d="M379.393,246.254c0.031-0.991,0.053-1.989,0.053-3c0-22.092-17-40-17-40s-17,17.908-17,40
			c0,1.011,0.021,2.009,0.053,3H379.393z"/>
	</g>
	<g id="高光_2_">
		<path fill="#FDB967" d="M362.445,246.254h16.947c0.031-0.991,0.053-1.989,0.053-3c0-22.092-17-40-17-40V246.254z"/>
		<rect x="362.445" y="246.254" fill="#ED6E65" width="17" height="56"/>
		<rect x="407.457" y="302.254" fill="#A5D9F4" width="25" height="64"/>
		<rect x="326.945" y="302.254" fill="#51B2E8" width="37" height="64"/>
	</g>
	<g id="勾线_2_">
		
			<rect x="345.445" y="246.254" fill="none" stroke="#5F4A57" stroke-width="10" stroke-linecap="round" stroke-linejoin="round" stroke-miterlimit="10" width="34" height="56"/>
		
			<rect x="325.445" y="302.254" fill="none" stroke="#5F4A57" stroke-width="10" stroke-linecap="round" stroke-linejoin="round" stroke-miterlimit="10" width="106" height="64"/>
		<path fill="none" stroke="#5F4A57" stroke-width="10" stroke-linecap="round" stroke-linejoin="round" stroke-miterlimit="10" d="
			M379.393,246.254c0.031-0.991,0.053-1.989,0.053-3c0-22.092-17-40-17-40s-17,17.908-17,40c0,1.011,0.021,2.009,0.053,3H379.393z"
			/>
		
			<line fill="none" stroke="#5F4A57" stroke-width="10" stroke-linecap="round" stroke-linejoin="round" stroke-miterlimit="10" x1="362.445" y1="201.754" x2="362.445" y2="186.754"/>
		
			<line fill="none" stroke="#5F4A57" stroke-width="10" stroke-linecap="round" stroke-linejoin="round" stroke-miterlimit="10" x1="340.445" y1="246.254" x2="384.445" y2="246.254"/>
		<g id="细节_2_">
			
				<line fill="none" stroke="#5F4A57" stroke-width="10" stroke-linecap="round" stroke-linejoin="round" stroke-miterlimit="10" x1="346.883" y1="302.539" x2="346.883" y2="313.953"/>
			
				<line fill="none" stroke="#5F4A57" stroke-width="10" stroke-linecap="round" stroke-linejoin="round" stroke-miterlimit="10" x1="367.925" y1="302.539" x2="367.925" y2="313.953"/>
			
				<line fill="none" stroke="#5F4A57" stroke-width="10" stroke-linecap="round" stroke-linejoin="round" stroke-miterlimit="10" x1="388.966" y1="302.539" x2="388.966" y2="313.953"/>
			
				<line fill="none" stroke="#5F4A57" stroke-width="10" stroke-linecap="round" stroke-linejoin="round" stroke-miterlimit="10" x1="410.007" y1="302.539" x2="410.007" y2="313.953"/>
			
				<line fill="none" stroke="#5F4A57" stroke-width="10" stroke-linecap="round" stroke-linejoin="round" stroke-miterlimit="10" x1="346.883" y1="340.797" x2="346.883" y2="366.256"/>
			
				<line fill="none" stroke="#5F4A57" stroke-width="10" stroke-linecap="round" stroke-linejoin="round" stroke-miterlimit="10" x1="367.925" y1="340.797" x2="367.925" y2="352.211"/>
			
				<line fill="none" stroke="#5F4A57" stroke-width="10" stroke-linecap="round" stroke-linejoin="round" stroke-miterlimit="10" x1="388.966" y1="340.797" x2="388.966" y2="352.211"/>
			
				<line fill="none" stroke="#5F4A57" stroke-width="10" stroke-linecap="round" stroke-linejoin="round" stroke-miterlimit="10" x1="410.007" y1="340.797" x2="410.007" y2="352.211"/>
			<circle fill="#5F4A57" cx="362.445" cy="284" r="5"/>
			
				<line fill="none" stroke="#5F4A57" stroke-width="10" stroke-linecap="round" stroke-linejoin="round" stroke-miterlimit="10" x1="362.445" y1="246.254" x2="362.445" y2="264.333"/>
		</g>
	</g>
</g>
<g id="建筑4">
	<g id="背景_3_">
		<path fill="#FDB967" d="M448.15,151.379c-9.389,0-17,7.611-17,17h34C465.15,158.991,457.539,151.379,448.15,151.379z"/>
		<rect x="431.15" y="167.504" fill="#FDB967" width="34" height="28"/>
		<rect x="431.15" y="195.504" fill="#FFA264" width="34" height="130"/>
		<rect x="431.15" y="325.504" fill="#FFA264" width="34" height="42"/>
	</g>
	<rect id="高光_3_" x="448.15" y="195.504" fill="#FFB961" width="17" height="130"/>
	<g id="勾线_3_">
		<path fill="none" stroke="#5F4A57" stroke-width="10" stroke-linecap="round" stroke-linejoin="round" stroke-miterlimit="10" d="
			M448.15,150.504c-9.389,0-17,7.611-17,17h34C465.15,158.116,457.539,150.504,448.15,150.504z"/>
		
			<rect x="431.15" y="167.504" fill="none" stroke="#5F4A57" stroke-width="10" stroke-linecap="round" stroke-linejoin="round" stroke-miterlimit="10" width="34" height="28"/>
		
			<rect x="431.15" y="195.504" fill="none" stroke="#5F4A57" stroke-width="10" stroke-linecap="round" stroke-linejoin="round" stroke-miterlimit="10" width="34" height="130"/>
		
			<rect x="431.15" y="325.504" fill="none" stroke="#5F4A57" stroke-width="10" stroke-linecap="round" stroke-linejoin="round" stroke-miterlimit="10" width="34" height="42"/>
		
			<line fill="none" stroke="#5F4A57" stroke-width="10" stroke-linecap="round" stroke-linejoin="round" stroke-miterlimit="10" x1="426.15" y1="167.504" x2="470.15" y2="167.504"/>
		
			<line fill="none" stroke="#5F4A57" stroke-width="10" stroke-linecap="round" stroke-linejoin="round" stroke-miterlimit="10" x1="448.15" y1="148.004" x2="448.15" y2="133.004"/>
		<g id="细节_5_">
			
				<line fill="none" stroke="#5F4A57" stroke-width="10" stroke-linecap="round" stroke-linejoin="round" stroke-miterlimit="10" x1="448.15" y1="256.511" x2="448.15" y2="267.925"/>
			
				<line fill="none" stroke="#5F4A57" stroke-width="10" stroke-linecap="round" stroke-linejoin="round" stroke-miterlimit="10" x1="448.15" y1="221" x2="448.15" y2="237.247"/>
			
				<line fill="none" stroke="#5F4A57" stroke-width="10" stroke-linecap="round" stroke-linejoin="round" stroke-miterlimit="10" x1="448.15" y1="184.09" x2="448.15" y2="195.504"/>
		</g>
	</g>
</g>
<g id="建筑5">
	<g id="背景_4_">
		<rect x="480.15" y="250.255" fill="#F3B28B" width="45" height="36"/>
		<rect x="465.15" y="286.755" fill="#E1584E" width="60" height="80"/>
	</g>
	<g id="高光_4_">
		<rect x="506.457" y="256.255" fill="#FED2AD" width="15" height="24"/>
		<rect x="493.957" y="281.247" fill="#FF878B" width="25" height="80"/>
	</g>
	<g id="勾线_4_">
		
			<rect x="480.15" y="250.255" fill="none" stroke="#5F4A57" stroke-width="10" stroke-linecap="round" stroke-linejoin="round" stroke-miterlimit="10" width="45" height="36"/>
		
			<rect x="465.15" y="286.755" fill="none" stroke="#5F4A57" stroke-width="10" stroke-linecap="round" stroke-linejoin="round" stroke-miterlimit="10" width="60" height="80"/>
		<g id="细节_3_">
			
				<line fill="none" stroke="#5F4A57" stroke-width="10" stroke-linecap="round" stroke-linejoin="round" stroke-miterlimit="10" x1="485.15" y1="323.27" x2="485.15" y2="328.977"/>
			
				<line fill="none" stroke="#5F4A57" stroke-width="10" stroke-linecap="round" stroke-linejoin="round" stroke-miterlimit="10" x1="505.15" y1="323.27" x2="505.15" y2="328.977"/>
			
				<line fill="none" stroke="#5F4A57" stroke-width="10" stroke-linecap="round" stroke-linejoin="round" stroke-miterlimit="10" x1="505.15" y1="343.007" x2="505.15" y2="367.1"/>
			<circle fill="#5F4A57" cx="485.149" cy="343.006" r="5"/>
			
				<line fill="none" stroke="#5F4A57" stroke-width="10" stroke-linecap="round" stroke-linejoin="round" stroke-miterlimit="10" x1="485.15" y1="303.533" x2="485.15" y2="309.24"/>
			
				<line fill="none" stroke="#5F4A57" stroke-width="10" stroke-linecap="round" stroke-linejoin="round" stroke-miterlimit="10" x1="505.15" y1="303.533" x2="505.15" y2="309.24"/>
		</g>
	</g>
</g>
<g id="建筑6">
	<g id="背景_5_">
		<path fill="#FED27F" d="M558.047,175.129h-10c-6.627,0-12,5.373-12,12v10h34v-10C570.047,180.502,564.674,175.129,558.047,175.129
			z"/>
		<polygon fill="#FED27F" points="570.047,217.129 570.047,197.129 536.047,197.129 536.047,217.129 526.047,217.129 
			526.047,237.129 580.047,237.129 580.047,217.129 		"/>
		<rect x="526.047" y="233.462" fill="#FED27F" width="54" height="129.999"/>
		<rect x="526.047" y="325.129" fill="#8B7E88" width="54" height="42"/>
	</g>
	<g id="高光_5_">
		<polygon fill="#FFE6A5" points="570.047,197.255 560.047,197.255 560.047,237.129 580.047,237.129 580.047,217.129 
			570.047,217.129 		"/>
		<rect x="560.047" y="237.247" fill="#FFE6A5" width="20" height="88"/>
		<rect x="560.047" y="325.129" fill="#9E909D" width="20" height="42"/>
		<path fill="#FFE6A5" d="M558.047,175.129h-10c-4.012,0-7.554,1.976-9.732,5h9.732c6.627,0,12,5.373,12,12v5h10v-10
			C570.047,180.502,564.674,175.129,558.047,175.129z"/>
	</g>
	<g id="勾线_5_">
		<path fill="none" stroke="#5F4A57" stroke-width="10" stroke-linecap="round" stroke-linejoin="round" stroke-miterlimit="10" d="
			M558.047,175.129h-10c-6.627,0-12,5.373-12,12v10h34v-10C570.047,180.502,564.674,175.129,558.047,175.129z"/>
		
			<polygon fill="none" stroke="#5F4A57" stroke-width="10" stroke-linecap="round" stroke-linejoin="round" stroke-miterlimit="10" points="
			570.047,217.129 570.047,197.129 536.047,197.129 536.047,217.129 526.047,217.129 526.047,237.129 580.047,237.129 
			580.047,217.129 		"/>
		<rect x="526.047" y="325.129" fill="none" width="54" height="42"/>
		
			<rect x="526.047" y="237.129" fill="none" stroke="#5F4A57" stroke-width="10" stroke-linecap="round" stroke-linejoin="round" stroke-miterlimit="10" width="54" height="130"/>
		
			<line fill="none" stroke="#5F4A57" stroke-width="10" stroke-linecap="round" stroke-linejoin="round" stroke-miterlimit="10" x1="553.047" y1="174.879" x2="553.047" y2="159.879"/>
		
			<line fill="none" stroke="#5F4A57" stroke-width="10" stroke-linecap="round" stroke-linejoin="round" stroke-miterlimit="10" x1="531.047" y1="197.129" x2="575.047" y2="197.129"/>
		
			<line fill="none" stroke="#5F4A57" stroke-width="10" stroke-linecap="round" stroke-linejoin="round" stroke-miterlimit="10" x1="521.047" y1="237.129" x2="585.047" y2="237.129"/>
		<g id="细节_6_">
			
				<line fill="none" stroke="#5F4A57" stroke-width="10" stroke-linecap="round" stroke-linejoin="round" stroke-miterlimit="10" x1="553.047" y1="272.586" x2="553.047" y2="284"/>
			
				<line fill="none" stroke="#5F4A57" stroke-width="10" stroke-linecap="round" stroke-linejoin="round" stroke-miterlimit="10" x1="553.047" y1="210.548" x2="553.047" y2="221.962"/>
			<circle fill="#5F4A57" cx="553.047" cy="255.255" r="5"/>
			
				<line fill="none" stroke="#5F4A57" stroke-width="10" stroke-linecap="round" stroke-linejoin="round" stroke-miterlimit="10" x1="553.047" y1="301" x2="553.047" y2="312.414"/>
		</g>
	</g>
</g>
<g id="建筑7">
	<g id="背景_6_">
		<rect x="580.047" y="287.254" fill="#968895" width="50" height="38"/>
		<rect x="580.047" y="325.254" fill="#F2B38C" width="64" height="42"/>
	</g>
	<g id="高光_6_">
		<rect x="609.457" y="286.756" fill="#9E909D" width="25" height="38"/>
		<rect x="609.457" y="324.756" fill="#FED2AD" width="35" height="42"/>
	</g>
	<g id="勾线_6_">
		
			<rect x="580.047" y="287.254" fill="none" stroke="#5F4A57" stroke-width="10" stroke-linecap="round" stroke-linejoin="round" stroke-miterlimit="10" width="50" height="38"/>
		
			<line fill="none" stroke="#5F4A57" stroke-width="10" stroke-linecap="round" stroke-linejoin="round" stroke-miterlimit="10" x1="580.047" y1="287.254" x2="640.047" y2="287.254"/>
		
			<polyline fill="none" stroke="#5F4A57" stroke-width="10" stroke-linecap="round" stroke-linejoin="round" stroke-miterlimit="10" points="
			644.047,367.254 580.047,367.254 580.047,325.254 644.047,325.254 		"/>
		<g id="细节_4_">
			
				<line fill="none" stroke="#5F4A57" stroke-width="10" stroke-linecap="round" stroke-linejoin="round" stroke-miterlimit="10" x1="595.047" y1="302.902" x2="595.047" y2="308.609"/>
			
				<line fill="none" stroke="#5F4A57" stroke-width="10" stroke-linecap="round" stroke-linejoin="round" stroke-miterlimit="10" x1="615.047" y1="302.902" x2="615.047" y2="308.609"/>
			
				<line fill="none" stroke="#5F4A57" stroke-width="10" stroke-linecap="round" stroke-linejoin="round" stroke-miterlimit="10" x1="615.047" y1="345.153" x2="615.047" y2="350.86"/>
			
				<line fill="none" stroke="#5F4A57" stroke-width="10" stroke-linecap="round" stroke-linejoin="round" stroke-miterlimit="10" x1="595.047" y1="345.153" x2="595.047" y2="367.254"/>
			
				<line fill="none" stroke="#5F4A57" stroke-width="10" stroke-linecap="round" stroke-linejoin="round" stroke-miterlimit="10" x1="635.047" y1="345.153" x2="635.047" y2="350.86"/>
		</g>
	</g>
</g>
</svg>
