<?xml version="1.0" standalone="no"?><!DOCTYPE svg PUBLIC "-//W3C//DTD SVG 1.1//EN" "http://www.w3.org/Graphics/SVG/1.1/DTD/svg11.dtd"><svg t="1554252628027" class="icon" style="" viewBox="0 0 1024 1024" version="1.1" xmlns="http://www.w3.org/2000/svg" p-id="2495" xmlns:xlink="http://www.w3.org/1999/xlink" width="16" height="16"><defs><style type="text/css"></style></defs><path d="M825.03057 636.638936c-12.515693-28.802222-19.510811-61.118003-19.510811-95.255203 0-14.394711 1.241585-28.349108 3.642837-41.79407 10.311559-58.066519 41.932308-106.008357 85.570837-137.037753 7.793829-5.520575 15.960133-10.544516 24.463073-14.974544-58.85627-92.738753-154.610667-107.052825-184.746634-110.184948-65.548031-6.78648-157.870789 44.008444-208.003961 44.844274l-1.299185 0c-50.121652-0.83455-142.41881-51.629475-208.003961-44.844274-32.617858 3.38812-136.863675 25.031387-199.732698 125.159493-22.051581 35.147108-39.021622 79.945303-46.01674 137.037753-2.52797 20.624398-3.722196 42.802698-3.4214 66.708978 0.302076 23.976679 2.215654 47.465683 5.509055 70.340295 7.029678 48.823748 20.276242 94.850728 37.397322 137.049273 18.988577 46.793691 42.709259 88.852718 67.973603 124.591179 55.921264 79.096673 119.256202 124.880456 154.912744 125.680446 73.35594 1.647341 137.119672-47.940558 189.711696-46.652893 0.556793 0.126719 1.125107 0.185598 1.67038 0.126719l0.650232-0.03456 0.650232 0.03456c0.556793 0.057599 1.102067 0 1.624301-0.126719 52.603543-1.345264 116.390315 48.300234 189.792335 46.652893 35.657822-0.799991 98.991479-46.583774 154.912744-125.680446 25.241304-35.738461 48.985026-77.798768 67.986403-124.591179 2.807007-6.983598 5.520575-14.059355 8.141985-21.227271C894.280318 735.339858 849.308045 692.60628 825.03057 636.638936z" p-id="2496"></path><path d="M654.645368 167.608915C710.960867 100.912737 708.791293 4.890823 703.711032 0.622073c-5.08026-4.29179-98.224768 12.80625-155.967451 77.323893-57.719643 64.516364-54.147205 162.742412-49.042625 166.988122C503.768417 249.224598 598.340108 234.353732 654.645368 167.608915z" p-id="2497"></path></svg>