<?xml version="1.0" standalone="no"?><!DOCTYPE svg PUBLIC "-//W3C//DTD SVG 1.1//EN" "http://www.w3.org/Graphics/SVG/1.1/DTD/svg11.dtd"><svg t="1554253179381" class="icon" style="" viewBox="0 0 1024 1024" version="1.1" xmlns="http://www.w3.org/2000/svg" p-id="4033" xmlns:xlink="http://www.w3.org/1999/xlink" width="16" height="16"><defs><style type="text/css"></style></defs><path d="M320 512a192 192 0 0 1 384 0 191.52 191.52 0 0 1-56.96 136.448l97.408 168.704C836.384 747.008 896 636.608 896 512c0-212.096-171.936-384-384-384C299.904 128 128 299.904 128 512c0 133.792 68.48 251.424 172.224 320.192l96.416-166.976A191.488 191.488 0 0 1 320 512z" fill="#73C884" p-id="4034"></path><path d="M512 64C264.608 64 64 264.576 64 512c0 157.472 81.408 295.68 204.256 375.552 17.824 11.648 36.608 21.856 56.096 30.848l32.064-55.52 97.024-168.032 33.152-57.408a126.848 126.848 0 0 1-57.408-28.608A127.04 127.04 0 0 1 384 512a128 128 0 0 1 256 0c0 29.344-10.272 56.096-26.912 77.696a128 128 0 0 1-50.816 40l32.064 55.552 96.192 166.56 32.064 55.52a444.736 444.736 0 0 0 54.016-34.4C887.616 791.36 960 660.32 960 512c0-247.424-200.576-448-448-448z m232.448 753.152l-97.408-168.704A192 192 0 1 0 320 512c0 62.688 30.176 118.176 76.64 153.216l-96.416 166.976C196.48 763.424 128 645.792 128 512 128 299.904 299.904 128 512 128c212.064 0 384 171.904 384 384 0 124.608-59.616 235.008-151.552 305.152z" fill="#767676" p-id="4035"></path></svg>