<?xml version="1.0" encoding="utf-8"?>
<!-- Generator: Adobe Illustrator 16.0.3, SVG Export Plug-In . SVG Version: 6.00 Build 0)  -->
<!DOCTYPE svg PUBLIC "-//W3C//DTD SVG 1.1//EN" "http://www.w3.org/Graphics/SVG/1.1/DTD/svg11.dtd">
<svg version="1.1" xmlns="http://www.w3.org/2000/svg" xmlns:xlink="http://www.w3.org/1999/xlink" x="0px" y="0px" width="800px"
	 height="600px" viewBox="0 0 800 600" enable-background="new 0 0 800 600" xml:space="preserve">
<g id="背景_1_">
	<rect id="背景" fill="#F5F7F9" width="800" height="600"/>
	<g id="月亮">
		<path fill="#FFF5B3" d="M134.354,129.282c-12.551-7.634-16.537-23.998-8.902-36.549c3.626-5.962,9.223-9.986,15.444-11.755
			c-12.352-3.264-25.877,1.773-32.854,13.243c-8.5,13.973-4.062,32.19,9.91,40.688c10.833,6.59,24.214,5.398,33.643-1.979
			C145.807,133.684,139.73,132.552,134.354,129.282"/>
		<path fill="none" stroke="#FFE080" stroke-width="5" stroke-linecap="round" stroke-linejoin="round" stroke-miterlimit="10" d="
			M134.354,129.282c-12.551-7.634-16.537-23.998-8.902-36.549c3.626-5.962,9.223-9.986,15.444-11.755
			c-12.352-3.264-25.877,1.773-32.854,13.243c-8.5,13.973-4.062,32.19,9.91,40.688c10.833,6.59,24.214,5.398,33.643-1.979
			C145.807,133.684,139.73,132.552,134.354,129.282z"/>
	</g>
	<g id="云1" opacity="0.2">
		<path fill="#FFFFFF" d="M194.49,330.416H94.314c0-10.377,8.413-18.783,18.783-18.783c1.119,0,2.207,0.102,3.271,0.289
			c1.425-14.228,13.43-25.333,28.034-25.333s26.609,11.105,28.033,25.333c1.065-0.188,2.153-0.289,3.272-0.289
			C186.084,311.633,194.49,320.039,194.49,330.416"/>
		<path fill="#FFFFFF" d="M194.491,330.412c0-10.373-8.41-18.783-18.783-18.783c-1.117,0-2.209,0.104-3.273,0.291
			c-1.424-14.227-13.43-25.335-28.032-25.335c-14.601,0-26.608,11.108-28.032,25.335c-1.063-0.188-2.156-0.291-3.273-0.291
			c-10.373,0-18.783,8.41-18.783,18.783"/>
		<path fill="none" stroke="#313C85" stroke-width="5" stroke-linecap="round" stroke-miterlimit="10" d="M194.491,330.412
			c0-10.373-8.41-18.783-18.783-18.783c-1.117,0-2.209,0.104-3.273,0.291c-1.424-14.227-13.43-25.335-28.032-25.335
			c-14.601,0-26.608,11.108-28.032,25.335c-1.063-0.188-2.156-0.291-3.273-0.291c-10.373,0-18.783,8.41-18.783,18.783"/>
		<path fill="#FFFFFF" d="M94.315,330.412c0-10.373,8.41-18.783,18.783-18.783c4.321,0,8.302,1.459,11.475,3.912"/>
		<path fill="none" stroke="#313C85" stroke-width="5" stroke-linecap="round" stroke-miterlimit="10" d="M94.315,330.412
			c0-10.373,8.41-18.783,18.783-18.783c4.321,0,8.302,1.459,11.475,3.912"/>
		<path fill="#FFFFFF" d="M164.231,315.543c3.174-2.455,7.155-3.914,11.477-3.914c10.374,0,18.783,8.41,18.783,18.783"/>
		<path fill="none" stroke="#313C85" stroke-width="5" stroke-linecap="round" stroke-miterlimit="10" d="M164.231,315.543
			c3.174-2.455,7.155-3.914,11.477-3.914c10.374,0,18.783,8.41,18.783,18.783"/>
		
			<line fill="none" stroke="#313C85" stroke-width="5" stroke-linecap="round" stroke-miterlimit="10" x1="180.288" y1="330.412" x2="202.317" y2="330.412"/>
		
			<line fill="none" stroke="#313C85" stroke-width="5" stroke-linecap="round" stroke-miterlimit="10" x1="115.999" y1="330.412" x2="115.999" y2="330.412"/>
		
			<line fill="none" stroke="#313C85" stroke-width="5" stroke-linecap="round" stroke-miterlimit="10" x1="86.489" y1="330.412" x2="109.445" y2="330.412"/>
		
			<line fill="none" stroke="#313C85" stroke-width="5" stroke-linecap="round" stroke-miterlimit="10" x1="202.316" y1="330.416" x2="194.49" y2="330.416"/>
		
			<line fill="none" stroke="#313C85" stroke-width="5" stroke-linecap="round" stroke-miterlimit="10" x1="94.314" y1="330.416" x2="86.488" y2="330.416"/>
		<rect x="83.988" y="284.085" fill="none" width="120.829" height="48.829"/>
	</g>
	<g id="云2" opacity="0.2">
		<path fill="#FFFFFF" d="M547.575,189c2.02-14.6,14.55-25.83,29.7-25.83c4.96,0,9.63,1.2,13.75,3.34
			c2.37-14.2,14.71-25.01,29.58-25.01c11.77,0,21.96,6.78,26.87,16.66c3.63-2.22,7.899-3.49,12.46-3.49
			c10.659,0,19.689,6.94,22.81,16.55c3.47-1.12,7.18-1.72,11.03-1.72c13.93,0,26.02,7.92,32,19.5"/>
		<path fill="none" stroke="#313C85" stroke-width="5" stroke-linecap="round" stroke-miterlimit="10" d="M547.575,189
			c2.02-14.6,14.55-25.83,29.7-25.83c4.96,0,9.63,1.2,13.75,3.34c2.37-14.2,14.71-25.01,29.58-25.01c11.77,0,21.96,6.78,26.87,16.66
			c3.63-2.22,7.899-3.49,12.46-3.49c10.659,0,19.689,6.94,22.81,16.55c3.47-1.12,7.18-1.72,11.03-1.72c13.93,0,26.02,7.92,32,19.5"
			/>
		
			<line fill="none" stroke="#313C85" stroke-width="5" stroke-linecap="round" stroke-miterlimit="10" x1="739.604" y1="189" x2="697.854" y2="189"/>
		
			<line fill="none" stroke="#313C85" stroke-width="5" stroke-linecap="round" stroke-miterlimit="10" x1="561.104" y1="189" x2="530.854" y2="189"/>
		
			<line fill="none" stroke="#313C85" stroke-width="5" stroke-linecap="round" stroke-miterlimit="10" x1="620.104" y1="189" x2="580.854" y2="189"/>
		<path fill="none" stroke="#313C85" stroke-width="5" stroke-linecap="round" stroke-miterlimit="10" d="M547.56,188.998
			c2.028-14.595,14.559-25.831,29.713-25.831c8.048,0,15.355,3.169,20.743,8.328"/>
		<path fill="#FFFFFF" d="M672.869,176.187c5.893-4.209,13.108-6.687,20.903-6.687"/>
		<path fill="none" stroke="#313C85" stroke-width="5" stroke-linecap="round" stroke-miterlimit="10" d="M672.869,176.187
			c5.893-4.209,13.108-6.687,20.903-6.687"/>
		<path fill="none" stroke="#313C85" stroke-width="5" stroke-linecap="round" stroke-miterlimit="10" d="M640.736,164.269
			c4.378-5.831,11.35-9.602,19.202-9.602c10.653,0,19.687,6.942,22.82,16.549"/>
		<path fill="#313C85" d="M573.854,188.998c0,1.38-1.118,2.5-2.5,2.5c-1.38,0-2.5-1.12-2.5-2.5c0-1.381,1.12-2.5,2.5-2.5
			C572.736,186.498,573.854,187.617,573.854,188.998"/>
		<rect x="528.354" y="139" fill="none" width="213.75" height="52.5"/>
	</g>
	<g id="海鸥" opacity="0.2">
		<path fill="#FFFFFF" d="M580.468,385.001c0,0,17.028,2.981,18.466,9.995"/>
		<path fill="none" stroke="#313C85" stroke-width="5" stroke-linecap="round" stroke-miterlimit="10" d="M580.468,385.001
			c0,0,17.028,2.981,18.466,9.995"/>
		<path fill="#FFFFFF" d="M611.979,378.542c0,0-14.483,9.44-13.046,16.454"/>
		<path fill="none" stroke="#313C85" stroke-width="5" stroke-linecap="round" stroke-miterlimit="10" d="M611.979,378.542
			c0,0-14.483,9.44-13.046,16.454"/>
		<path fill="#FFFFFF" d="M606.67,352.547c0,0,17.029,2.981,18.467,9.995"/>
		<path fill="none" stroke="#313C85" stroke-width="5" stroke-linecap="round" stroke-miterlimit="10" d="M606.67,352.547
			c0,0,17.029,2.981,18.467,9.995"/>
		<path fill="#FFFFFF" d="M638.182,346.088c0,0-14.482,9.44-13.045,16.454"/>
		<path fill="none" stroke="#313C85" stroke-width="5" stroke-linecap="round" stroke-miterlimit="10" d="M638.182,346.088
			c0,0-14.482,9.44-13.045,16.454"/>
		<polygon fill="none" points="575.313,398.051 638.026,398.051 640.682,343.587 577.968,343.587 		"/>
	</g>
</g>
<g id="底座">
	<g id="树2">
		<path fill="#77D9AC" d="M551.612,462.377c1.722-2.441,2.742-5.413,2.742-8.627c0-6.029-3.565-11.213-8.695-13.596
			c-0.573-12.746-11.085-22.904-23.972-22.904c-9.9,0-18.397,5.995-22.066,14.552c-1.909-0.881-4.026-1.385-6.267-1.385
			c-8.284,0-15,6.715-15,15c0,8.284,6.716,15,15,15c3.81,0,7.277-1.433,9.924-3.773c4.402,5.26,11.014,8.606,18.409,8.606
			c1.896,0,3.738-0.227,5.508-0.643c-1.27,2.202-2.008,4.751-2.008,7.477c0,8.284,6.716,15,15,15s15-6.716,15-15
			C555.188,468.379,553.838,464.994,551.612,462.377"/>
		<path fill="none" stroke="#313C85" stroke-width="5" stroke-linecap="round" stroke-linejoin="round" stroke-miterlimit="10" d="
			M551.612,462.377c1.722-2.441,2.742-5.413,2.742-8.627c0-6.029-3.565-11.213-8.695-13.596
			c-0.573-12.746-11.085-22.904-23.972-22.904c-9.9,0-18.397,5.995-22.066,14.552c-1.909-0.881-4.026-1.385-6.267-1.385
			c-8.284,0-15,6.715-15,15c0,8.284,6.716,15,15,15c3.81,0,7.277-1.433,9.924-3.773c4.402,5.26,11.014,8.606,18.409,8.606
			c1.896,0,3.738-0.227,5.508-0.643c-1.27,2.202-2.008,4.751-2.008,7.477c0,8.284,6.716,15,15,15s15-6.716,15-15
			C555.188,468.379,553.838,464.994,551.612,462.377z"/>
		<path fill="#6CC59C" d="M541.688,451.563c-4.924,4.671-11.835,4.438-11.835,4.438l15,30.001l0.502,0.149
			c5.734-2.107,9.833-7.602,9.833-14.066c0-3.705-1.349-7.09-3.575-9.707c1.722-2.441,2.742-5.412,2.742-8.626
			c0-6.029-3.565-11.214-8.694-13.598C545.66,440.153,546.563,446.938,541.688,451.563"/>
		<path fill="#A6E6C9" d="M508.642,421.116c-3.97,2.578-7.135,6.29-9.021,10.686c-1.908-0.881-4.026-1.386-6.267-1.386
			c-2.839,0-5.484,0.804-7.748,2.174c-1.017,1.842-1.802,3.836-2.311,5.948c4.758,2.589,12.628,0.285,18.751-5.838
			C505.635,429.112,507.891,424.928,508.642,421.116"/>
		<path fill="none" stroke="#313C85" stroke-width="5" stroke-linecap="round" stroke-linejoin="round" stroke-miterlimit="10" d="
			M551.612,462.377c1.722-2.441,2.742-5.413,2.742-8.627c0-6.029-3.565-11.213-8.695-13.596
			c-0.573-12.746-11.085-22.904-23.972-22.904c-9.9,0-18.397,5.995-22.066,14.552c-1.909-0.881-4.026-1.385-6.267-1.385
			c-8.284,0-15,6.715-15,15c0,8.284,6.716,15,15,15c3.81,0,7.277-1.433,9.924-3.773c4.402,5.26,11.014,8.606,18.409,8.606
			c1.896,0,3.738-0.227,5.508-0.643c-1.27,2.202-2.008,4.751-2.008,7.477c0,8.284,6.716,15,15,15s15-6.716,15-15
			C555.188,468.379,553.838,464.994,551.612,462.377z"/>
		<path fill="none" stroke="#313C85" stroke-width="5" stroke-linecap="round" stroke-linejoin="round" stroke-miterlimit="10" d="
			M545.438,458.027c5.695,2.129,9.75,7.618,9.75,14.057"/>
		<path fill="#77D9AC" d="M497.772,439.239c1.109-13.208,12.717-23.016,25.926-21.904c13.208,1.109,23.015,12.717,21.904,25.926"/>
		<path fill="none" stroke="#313C85" stroke-width="5" stroke-linecap="round" stroke-linejoin="round" stroke-miterlimit="10" d="
			M497.772,439.239c1.109-13.208,12.717-23.016,25.926-21.904c13.208,1.109,23.015,12.717,21.904,25.926"/>
	</g>
	<g id="树1">
		<path fill="#77D9AC" d="M263.465,468.936c-5.33,0-9.999,2.788-12.659,6.977c-2.395-1.618-5.282-2.563-8.39-2.563
			c-8.284,0-15,6.715-15,15c0,0.823,0.084,1.625,0.212,2.413c-4.124,2.673-6.859,7.306-6.859,12.587c0,8.284,6.716,15,15,15
			c8.285,0,15-6.716,15-15c0-0.824-0.084-1.626-0.211-2.413c1.816-1.178,3.356-2.736,4.517-4.564
			c2.395,1.618,5.282,2.564,8.39,2.564c8.284,0,15-6.716,15-15C278.465,475.65,271.75,468.936,263.465,468.936"/>
		<path fill="none" stroke="#313C85" stroke-width="5" stroke-linecap="round" stroke-linejoin="round" stroke-miterlimit="10" d="
			M263.465,468.936c-5.33,0-9.999,2.788-12.659,6.977c-2.395-1.618-5.282-2.563-8.39-2.563c-8.284,0-15,6.715-15,15
			c0,0.823,0.084,1.625,0.212,2.413c-4.124,2.673-6.859,7.306-6.859,12.587c0,8.284,6.716,15,15,15c8.285,0,15-6.716,15-15
			c0-0.824-0.084-1.626-0.211-2.413c1.816-1.178,3.356-2.736,4.517-4.564c2.395,1.618,5.282,2.564,8.39,2.564
			c8.284,0,15-6.716,15-15C278.465,475.65,271.75,468.936,263.465,468.936z"/>
		<path fill="#A6E6C9" d="M263.71,472.48c0,5.739-4.66,10.399-10.4,10.399c-1.68,0-3.27-0.399-4.68-1.12
			c0.31-2.13,1.06-4.109,2.17-5.85h0.01c0.81-1.271,1.8-2.42,2.95-3.4c0.69-0.58,1.43-1.109,2.22-1.56
			c0.26-0.15,0.53-0.29,0.8-0.431c0.55-0.27,1.11-0.51,1.69-0.72c0.29-0.1,0.58-0.189,0.88-0.28c0.3-0.079,0.6-0.159,0.9-0.229
			c0.61-0.13,1.24-0.23,1.87-0.28c0.32-0.029,0.64-0.05,0.96-0.06C263.48,470.05,263.71,471.24,263.71,472.48"/>
		<path fill="#A6E6C9" d="M227.417,488.348c0,0.823,0.084,1.625,0.211,2.413c-0.395,0.257-0.772,0.535-1.14,0.826l8.38-3.211
			c0,0-0.559-3.514,2.882-7.938c3.282-4.219,13.057-4.525,13.057-4.525c-2.395-1.619-5.282-2.564-8.39-2.564
			C234.132,473.348,227.417,480.064,227.417,488.348"/>
		<path fill="#A6E6C9" d="M227.9,484.628c-0.305,1.191-0.484,2.434-0.484,3.72c0,0.823,0.084,1.626,0.212,2.413
			c-4.124,2.673-6.858,7.308-6.858,12.587c0,0.64,0.052,1.266,0.13,1.884c6.253-0.19,11.267-5.308,11.267-11.606
			C232.167,489.998,230.504,486.76,227.9,484.628"/>
		<path fill="none" stroke="#313C85" stroke-width="5" stroke-linecap="round" stroke-linejoin="round" stroke-miterlimit="10" d="
			M263.465,468.936c-5.33,0-9.999,2.788-12.659,6.977c-2.395-1.618-5.282-2.563-8.39-2.563c-8.284,0-15,6.715-15,15
			c0,0.823,0.084,1.625,0.212,2.413c-4.124,2.673-6.859,7.306-6.859,12.587c0,8.284,6.716,15,15,15c8.285,0,15-6.716,15-15
			c0-0.824-0.084-1.626-0.211-2.413c1.816-1.178,3.356-2.736,4.517-4.564c2.395,1.618,5.282,2.564,8.39,2.564
			c8.284,0,15-6.716,15-15C278.465,475.65,271.75,468.936,263.465,468.936z"/>
		<path fill="none" stroke="#313C85" stroke-width="5" stroke-linecap="round" stroke-linejoin="round" stroke-miterlimit="10" d="
			M220.77,503.348c0-8.283,6.716-15,15-15"/>
		<path fill="none" stroke="#313C85" stroke-width="5" stroke-linecap="round" stroke-linejoin="round" stroke-miterlimit="10" d="
			M248.465,483.936c0-8.285,6.716-15,15-15"/>
		<path fill="none" stroke="#313C85" stroke-width="5" stroke-linecap="round" stroke-linejoin="round" stroke-miterlimit="10" d="
			M263.47,468.939c-0.13,0-0.26,0-0.39,0.011c-0.32,0-0.64,0.02-0.96,0.06c-0.63,0.05-1.26,0.141-1.87,0.28
			c-0.3,0.06-0.61,0.14-0.9,0.229c-0.3,0.08-0.59,0.17-0.88,0.28c-0.58,0.2-1.14,0.44-1.69,0.72c-0.27,0.131-0.54,0.271-0.8,0.431
			c-0.79,0.45-1.53,0.97-2.22,1.56c-1.15,0.97-2.15,2.12-2.96,3.4"/>
		<path fill="none" stroke="#313C85" stroke-width="5" stroke-linecap="round" stroke-linejoin="round" stroke-miterlimit="10" d="
			M248.63,481.76c-0.11,0.71-0.16,1.44-0.16,2.18"/>
	</g>
	<g id="石头1">
		<path fill="#7E808D" d="M429.853,516h-180l27.236-54.472c1.694-3.389,5.157-5.528,8.945-5.528h113.819L429.853,516z"/>
		<path fill="none" stroke="#313C85" stroke-width="5" stroke-linecap="round" stroke-linejoin="round" stroke-miterlimit="10" d="
			M429.853,516h-180l27.236-54.472c1.694-3.389,5.157-5.528,8.945-5.528h113.819L429.853,516z"/>
	</g>
	<g id="楼梯1">
		<polygon fill="#DBDBCE" points="484.853,516 304.852,516 334.852,456 454.853,456 		"/>
		
			<polygon fill="none" stroke="#313C85" stroke-width="5" stroke-linecap="round" stroke-linejoin="round" stroke-miterlimit="10" points="
			484.853,516 304.852,516 334.852,456 454.853,456 		"/>
		<polygon fill="#DBDBCE" points="464.854,529 284.854,529 314.854,469 434.854,469 		"/>
		
			<polygon fill="none" stroke="#313C85" stroke-width="5" stroke-linecap="round" stroke-linejoin="round" stroke-miterlimit="10" points="
			464.854,529 284.854,529 314.854,469 434.854,469 		"/>
		<polygon fill="#DBDBCE" points="449.853,542 269.852,542 299.852,482 419.853,482 		"/>
		
			<polygon fill="none" stroke="#313C85" stroke-width="5" stroke-linecap="round" stroke-linejoin="round" stroke-miterlimit="10" points="
			449.853,542 269.852,542 299.852,482 419.853,482 		"/>
	</g>
	<g id="石头2">
		<polygon fill="#9497A6" points="579.853,556 309.852,556 359.852,456 529.853,456 		"/>
		
			<polygon fill="none" stroke="#313C85" stroke-width="5" stroke-linecap="round" stroke-linejoin="round" stroke-miterlimit="10" points="
			579.853,556 309.852,556 359.852,456 529.853,456 		"/>
		<path id="阴影_1_" fill="#878997" d="M513.25,456c0,0,14.832,9.034,10.417,26c-6.896,26.5-61.167,40-61.167,40h100.352l-33-66
			H513.25z"/>
		<path id="高光" fill="#B9BBC5" d="M373.028,463.047h124.517c5.385,0,10.437-2.609,13.553-7h-53h-92.069
			c-3.788,0-7.25,2.14-8.944,5.528l-27.237,54.472h10.5l23.737-47.472C365.778,465.187,369.24,463.047,373.028,463.047"/>
		
			<polygon fill="none" stroke="#313C85" stroke-width="5" stroke-linecap="round" stroke-linejoin="round" stroke-miterlimit="10" points="
			579.853,556 309.852,556 359.852,456 529.853,456 		"/>
	</g>
	<g id="楼梯2">
		<polygon fill="#DBDBCE" points="366.352,509 359.852,496 394.852,496 401.353,509 		"/>
		
			<polygon fill="none" stroke="#313C85" stroke-width="5" stroke-linecap="round" stroke-linejoin="round" stroke-miterlimit="10" points="
			366.352,509 359.852,496 394.852,496 401.353,509 		"/>
		<polygon fill="#DBDBCE" points="372.852,522 366.352,509 409.853,509 416.353,522 		"/>
		
			<polygon fill="none" stroke="#313C85" stroke-width="5" stroke-linecap="round" stroke-linejoin="round" stroke-miterlimit="10" points="
			372.852,522 366.352,509 409.853,509 416.353,522 		"/>
	</g>
	<g id="石头3">
		<path fill="#9497A6" d="M358.854,532v24H209.852l27.236-54.472c1.694-3.389,5.157-5.528,8.945-5.528h113.819l18,36H358.854z"/>
		<path fill="none" stroke="#313C85" stroke-width="5" stroke-linecap="round" stroke-linejoin="round" stroke-miterlimit="10" d="
			M358.854,532v24H209.852l27.236-54.472c1.694-3.389,5.157-5.528,8.945-5.528h113.819l18,36H358.854z"/>
		<path fill="#878997" d="M341.75,496c0,0,7.083,9.583,0.083,25.5c-4.484,10.198-16.494,18.969-16.494,18.969l34.741,4.357
			L377.852,532l-18-36H341.75z"/>
		<path fill="#B9BBC5" d="M253.033,503h71.517c5.384,0,10.436-2.609,13.552-7h-92.069c-3.788,0-7.25,2.14-8.944,5.528L209.852,556
			h10.5l23.737-47.472C245.783,505.14,249.245,503,253.033,503"/>
		<path fill="none" stroke="#313C85" stroke-width="5" stroke-linecap="round" stroke-linejoin="round" stroke-miterlimit="10" d="
			M358.854,532v24H209.852l27.236-54.472c1.694-3.389,5.157-5.528,8.945-5.528h113.819l18,36H358.854z"/>
	</g>
	<g id="栏杆">
		<rect id="阴影" x="360.854" y="532" fill="#7E808D" width="207" height="31"/>
		<g id="颜色">
			<path fill="#EB9558" d="M591.019,532h-250c-2.762,0-5-2.239-5-5s2.238-5,5-5h250c2.762,0,5,2.239,5,5S593.78,532,591.019,532"/>
			<path fill="#EB9558" d="M423.854,556v-42c0-2.761,2.239-5,5-5c2.763,0,5,2.239,5,5v42H423.854z"/>
			<path fill="#EB9558" d="M350.854,556v-42c0-2.761,2.239-5,5-5c2.762,0,5,2.239,5,5v42H350.854z"/>
			<path fill="#EB9558" d="M495.854,556v-42c0-2.761,2.239-5,5-5c2.763,0,5,2.239,5,5v42H495.854z"/>
			<path fill="#EB9558" d="M567.854,556v-42c0-2.761,2.239-5,5-5c2.763,0,5,2.239,5,5v42H567.854z"/>
		</g>
		<g id="勾线">
			<path fill="none" stroke="#313C85" stroke-width="5" stroke-linecap="round" stroke-linejoin="round" stroke-miterlimit="10" d="
				M591.019,532h-250c-2.762,0-5-2.239-5-5s2.238-5,5-5h250c2.762,0,5,2.239,5,5S593.78,532,591.019,532z"/>
			<path fill="none" stroke="#313C85" stroke-width="5" stroke-linecap="round" stroke-linejoin="round" stroke-miterlimit="10" d="
				M423.854,556v-42c0-2.761,2.239-5,5-5c2.763,0,5,2.239,5,5v42H423.854z"/>
			<path fill="none" stroke="#313C85" stroke-width="5" stroke-linecap="round" stroke-linejoin="round" stroke-miterlimit="10" d="
				M350.854,556v-42c0-2.761,2.239-5,5-5c2.762,0,5,2.239,5,5v42H350.854z"/>
			<path fill="none" stroke="#313C85" stroke-width="5" stroke-linecap="round" stroke-linejoin="round" stroke-miterlimit="10" d="
				M495.854,556v-42c0-2.761,2.239-5,5-5c2.763,0,5,2.239,5,5v42H495.854z"/>
			<path fill="none" stroke="#313C85" stroke-width="5" stroke-linecap="round" stroke-linejoin="round" stroke-miterlimit="10" d="
				M567.854,556v-42c0-2.761,2.239-5,5-5c2.763,0,5,2.239,5,5v42H567.854z"/>
			
				<line fill="none" stroke="#313C85" stroke-width="5" stroke-linecap="round" stroke-linejoin="round" stroke-miterlimit="10" x1="360.854" y1="532" x2="422.854" y2="556"/>
			
				<line fill="none" stroke="#313C85" stroke-width="5" stroke-linecap="round" stroke-linejoin="round" stroke-miterlimit="10" x1="360.854" y1="556" x2="422.854" y2="532"/>
			
				<line fill="none" stroke="#313C85" stroke-width="5" stroke-linecap="round" stroke-linejoin="round" stroke-miterlimit="10" x1="433.854" y1="532" x2="495.854" y2="556"/>
			
				<line fill="none" stroke="#313C85" stroke-width="5" stroke-linecap="round" stroke-linejoin="round" stroke-miterlimit="10" x1="433.854" y1="556" x2="495.854" y2="532"/>
			
				<line fill="none" stroke="#313C85" stroke-width="5" stroke-linecap="round" stroke-linejoin="round" stroke-miterlimit="10" x1="505.854" y1="532" x2="567.854" y2="556"/>
			
				<line fill="none" stroke="#313C85" stroke-width="5" stroke-linecap="round" stroke-linejoin="round" stroke-miterlimit="10" x1="505.854" y1="556" x2="567.854" y2="532"/>
		</g>
	</g>
	<g id="细节">
		<rect x="208.019" y="556" fill="#F5F7F9" width="378" height="33.333"/>
		<path fill="#F5F7F9" d="M659.353,556c-32.498,0-32.498-16-64.997-16c-32.5,0-32.5,16-64.999,16c-32.5,0-32.5-16-64.999-16
			c-32.498,0-32.498,16-64.996,16c-32.5,0-32.5-16-64.999-16c-32.501,0-32.501,16-65.002,16c-32.502,0-32.502-16-65.004-16
			s-32.502,16-65.004,16"/>
		<path fill="none" stroke="#313C85" stroke-width="5" stroke-linecap="round" stroke-linejoin="round" stroke-miterlimit="10" d="
			M659.353,556c-32.498,0-32.498-16-64.997-16c-32.5,0-32.5,16-64.999,16c-32.5,0-32.5-16-64.999-16c-32.498,0-32.498,16-64.996,16
			c-32.5,0-32.5-16-64.999-16c-32.501,0-32.501,16-65.002,16c-32.502,0-32.502-16-65.004-16s-32.502,16-65.004,16"/>
		
			<line fill="none" stroke="#B9BBC5" stroke-width="5" stroke-linecap="round" stroke-linejoin="round" stroke-miterlimit="10" x1="252.875" y1="510.75" x2="262.875" y2="510.75"/>
		<path fill="none" stroke="#313C85" stroke-width="5" stroke-linecap="round" stroke-linejoin="round" stroke-miterlimit="10" d="
			M256.917,527.416c0-2.761,2.239-5,5-5c2.762,0,5,2.239,5,5"/>
		<path fill="none" stroke="#313C85" stroke-width="5" stroke-linecap="round" stroke-linejoin="round" stroke-miterlimit="10" d="
			M450.772,487c0-2.761,2.238-5,5-5s5,2.239,5,5"/>
		
			<line fill="none" stroke="#313C85" stroke-width="5" stroke-linecap="round" stroke-linejoin="round" stroke-miterlimit="10" x1="485.835" y1="487.084" x2="495.835" y2="487.084"/>
		<path fill="#A6E6C9" d="M530.331,439.586c0,4.14-3.355,7.494-7.493,7.494c-4.14,0-7.494-3.354-7.494-7.494
			c0-4.138,3.354-7.492,7.494-7.492C526.976,432.094,530.331,435.448,530.331,439.586"/>
		<path fill="#313C85" d="M508.335,487.084c0,1.38-1.12,2.5-2.5,2.5c-1.382,0-2.5-1.12-2.5-2.5c0-1.382,1.118-2.5,2.5-2.5
			C507.215,484.584,508.335,485.702,508.335,487.084"/>
		<path fill="#313C85" d="M477.353,508.5c0,1.381-1.119,2.5-2.5,2.5s-2.5-1.119-2.5-2.5s1.119-2.5,2.5-2.5
			S477.353,507.119,477.353,508.5"/>
		<path fill="#313C85" d="M379.854,472.25c0,1.381-1.119,2.5-2.5,2.5c-1.38,0-2.5-1.119-2.5-2.5s1.12-2.5,2.5-2.5
			C378.735,469.75,379.854,470.869,379.854,472.25"/>
		<path fill="#313C85" d="M293.852,466.436c0,1.38-1.119,2.5-2.5,2.5c-1.38,0-2.5-1.12-2.5-2.5c0-1.381,1.12-2.5,2.5-2.5
			C292.733,463.936,293.852,465.055,293.852,466.436"/>
		<path fill="#313C85" d="M323.167,518.348c0,1.382-1.119,2.5-2.5,2.5c-1.38,0-2.5-1.118-2.5-2.5c0-1.381,1.12-2.5,2.5-2.5
			C322.047,515.848,323.167,516.967,323.167,518.348"/>
		<path fill="#313C85" d="M289.083,540c0,1.381-1.12,2.5-2.5,2.5c-1.381,0-2.5-1.119-2.5-2.5s1.119-2.5,2.5-2.5
			C287.963,537.5,289.083,538.619,289.083,540"/>
		<path fill="#313C85" d="M263.375,544.916c0,1.105-0.896,2-2,2s-2-0.895-2-2c0-1.104,0.896-2,2-2S263.375,543.813,263.375,544.916"
			/>
		<path fill="#313C85" d="M277.125,507.25c0,1.104-0.896,2-2,2s-2-0.896-2-2s0.896-2,2-2S277.125,506.146,277.125,507.25"/>
		<path fill="#313C85" d="M389.521,476.75c0,1.104-0.896,2-2,2s-2-0.896-2-2s0.896-2,2-2S389.521,475.646,389.521,476.75"/>
		<path fill="#313C85" d="M530.166,501.834c0,1.104-0.896,2-2,2c-1.104,0-2-0.896-2-2c0-1.104,0.896-2,2-2
			C529.271,499.834,530.166,500.729,530.166,501.834"/>
		<path fill="none" stroke="#313C85" stroke-width="5" stroke-linecap="round" stroke-linejoin="round" stroke-miterlimit="10" d="
			M517.898,438.786c0.436-2.727,2.998-4.585,5.726-4.15c2.727,0.436,4.585,2.998,4.149,5.726"/>
		<path fill="#A6E6C9" d="M523.698,417.335c-11.965-1.007-22.614,6.945-25.34,18.269c4.758,2.59,12.628,0.285,18.751-5.838
			c3.849-3.848,6.188-8.389,6.754-12.413C523.808,417.348,523.754,417.339,523.698,417.335"/>
		<path fill="none" stroke="#313C85" stroke-width="5" stroke-linecap="round" stroke-linejoin="round" stroke-miterlimit="10" d="
			M497.772,439.239c1.109-13.208,12.717-23.016,25.926-21.904c13.208,1.109,23.015,12.717,21.904,25.926"/>
		<path fill="#313C85" d="M671.853,556c0,1.381-1.119,2.5-2.5,2.5s-2.5-1.119-2.5-2.5s1.119-2.5,2.5-2.5
			S671.853,554.619,671.853,556"/>
		<path fill="#313C85" d="M131.852,556c0,1.381-1.119,2.5-2.5,2.5c-1.38,0-2.5-1.119-2.5-2.5s1.12-2.5,2.5-2.5
			C130.733,553.5,131.852,554.619,131.852,556"/>
		<path fill="none" stroke="#313C85" stroke-width="5" stroke-linecap="round" stroke-linejoin="round" stroke-miterlimit="10" d="
			M305.2,559.43c17.967-11.43,39.3-11.43,57.601,0"/>
		<path fill="none" stroke="#313C85" stroke-width="5" stroke-linecap="round" stroke-linejoin="round" stroke-miterlimit="10" d="
			M445.447,555.085c12.691-5.411,26.479-5.628,39.405-0.65"/>
		<path fill="none" stroke="#313C85" stroke-width="5" stroke-linecap="round" stroke-linejoin="round" stroke-miterlimit="10" d="
			M437.219,559.43C437.482,559.263,436.953,559.593,437.219,559.43"/>
	</g>
</g>
<g id="灯塔塔身">
	<g id="塔身上部">
		<polygon fill="#FF5266" points="463.353,401 335.352,401 359.352,216 439.353,216 		"/>
		
			<polygon fill="none" stroke="#313C85" stroke-width="5" stroke-linecap="round" stroke-linejoin="round" stroke-miterlimit="10" points="
			463.353,401 335.352,401 359.352,216 439.353,216 		"/>
		<path fill="#E0485A" d="M439.353,224c0.304-1,0.604-1.019,0.902-1.045L439.353,216h-80l-0.902,6.955
			c0.297,0.026,0.597,0.045,0.902,1.045H439.353z"/>
		<path fill="#ED4C5F" d="M338.182,379.191c21.926-0.199,41.153-7.788,61.17-20.358c49.5-31.083,51.281-58.229,51.281-58.229
			l4.492,36.977L349.352,401h-14L338.182,379.191z"/>
		<polygon fill="#D6D7DA" points="349.352,401 455.125,337.582 463.353,401 		"/>
		
			<polygon fill="none" stroke="#313C85" stroke-width="5" stroke-linecap="round" stroke-linejoin="round" stroke-miterlimit="10" points="
			349.352,401 455.125,337.582 463.353,401 		"/>
		
			<polygon fill="none" stroke="#313C85" stroke-width="5" stroke-linecap="round" stroke-linejoin="round" stroke-miterlimit="10" points="
			463.353,401 335.352,401 359.352,216 439.353,216 		"/>
		<polygon fill="#E6E7EB" points="446.375,270.134 344.618,329.577 354.41,253.068 418.352,216 439.352,216 		"/>
		
			<polygon fill="none" stroke="#313C85" stroke-width="5" stroke-linecap="round" stroke-linejoin="round" stroke-miterlimit="10" points="
			446.375,270.134 344.618,329.577 354.41,253.068 418.352,216 439.352,216 		"/>
		<path fill="#CACBCE" d="M439.353,224c0.304-1,0.604-1.019,0.902-1.045l-0.36-2.778l-0.54-4.16L439.353,216h-21l-13.8,8H439.353z"
			/>
		
			<polygon fill="none" stroke="#313C85" stroke-width="5" stroke-linecap="round" stroke-linejoin="round" stroke-miterlimit="10" points="
			446.375,270.134 344.618,329.577 354.41,253.068 418.352,216 439.352,216 		"/>
		<g opacity="0.3">
			<path fill="#FFFFFF" d="M361.95,268.253l-7.522,60.569c-0.759,6.115,4.941,11.04,10.881,9.399l3.513-0.97
				c3.748-1.035,6.344-4.445,6.344-8.334v-61.164c0-3.525-3.504-5.98-6.817-4.775l-3.093,1.125
				C363.462,264.756,362.185,266.359,361.95,268.253"/>
			<rect x="354.36" y="262.669" fill="none" width="20.807" height="75.871"/>
		</g>
		<line fill="#E6E7EB" x1="446.375" y1="270.134" x2="344.618" y2="329.577"/>
		
			<line fill="none" stroke="#313C85" stroke-width="5" stroke-linecap="round" stroke-linejoin="round" stroke-miterlimit="10" x1="446.375" y1="270.134" x2="344.618" y2="329.577"/>
	</g>
	<g id="塔身下部">
		<path fill="#DBDBCE" d="M355.352,426h-34v-26c0-2.209,1.791-4,4-4h26c2.209,0,4,1.791,4,4V426z"/>
		<path fill="none" stroke="#313C85" stroke-width="5" stroke-linecap="round" stroke-linejoin="round" stroke-miterlimit="10" d="
			M355.352,426h-34v-26c0-2.209,1.791-4,4-4h26c2.209,0,4,1.791,4,4V426z"/>
		<path fill="#DBDBCE" d="M335.352,456h-26v-26c0-2.209,1.791-4,4-4h18c2.209,0,4,1.791,4,4V456z"/>
		<path fill="none" stroke="#313C85" stroke-width="5" stroke-linecap="round" stroke-linejoin="round" stroke-miterlimit="10" d="
			M335.352,456h-26v-26c0-2.209,1.791-4,4-4h18c2.209,0,4,1.791,4,4V456z"/>
		<path fill="#F2F2EE" d="M309.352,456l5.25-21.275c0.44-1.786,2.043-3.042,3.883-3.042h16.867V426h-26V456z"/>
		<path fill="none" stroke="#313C85" stroke-width="5" stroke-linecap="round" stroke-linejoin="round" stroke-miterlimit="10" d="
			M335.352,456h-26v-26c0-2.209,1.791-4,4-4h18c2.209,0,4,1.791,4,4V456z"/>
		<path fill="#DBDBCE" d="M365.352,456h-30v-26c0-2.209,1.791-4,4-4h26V456z"/>
		<path fill="none" stroke="#313C85" stroke-width="5" stroke-linecap="round" stroke-linejoin="round" stroke-miterlimit="10" d="
			M365.352,456h-30v-26c0-2.209,1.791-4,4-4h26V456z"/>
		<path fill="#F2F2EE" d="M335.352,456.684l5.264-21.935c0.432-1.798,2.04-3.065,3.89-3.065h20.846V426h-30V456.684z"/>
		<path fill="none" stroke="#313C85" stroke-width="5" stroke-linecap="round" stroke-linejoin="round" stroke-miterlimit="10" d="
			M365.352,456h-30v-26c0-2.209,1.791-4,4-4h26V456z"/>
		<path fill="#F2F2EE" d="M321.352,426l5.243-20.97c0.445-1.781,2.045-3.03,3.88-3.03h24.877v-6h-34V426z"/>
		<path fill="none" stroke="#313C85" stroke-width="5" stroke-linecap="round" stroke-linejoin="round" stroke-miterlimit="10" d="
			M355.352,426h-34v-26c0-2.209,1.791-4,4-4h26c2.209,0,4,1.791,4,4V426z"/>
		<path fill="#DBDBCE" d="M389.352,426h-34v-26c0-2.209,1.791-4,4-4h30V426z"/>
		<path fill="none" stroke="#313C85" stroke-width="5" stroke-linecap="round" stroke-linejoin="round" stroke-miterlimit="10" d="
			M389.352,426h-34v-26c0-2.209,1.791-4,4-4h30V426z"/>
		<path fill="#DBDBCE" d="M477.353,426h-34v-26c0-2.209,1.791-4,4-4h26c2.209,0,4,1.791,4,4V426z"/>
		<path fill="none" stroke="#313C85" stroke-width="5" stroke-linecap="round" stroke-linejoin="round" stroke-miterlimit="10" d="
			M477.353,426h-34v-26c0-2.209,1.791-4,4-4h26c2.209,0,4,1.791,4,4V426z"/>
		<path fill="#F2F2EE" d="M443.353,426l5.242-20.97c0.445-1.781,2.045-3.03,3.882-3.03h24.876v-6h-34V426z"/>
		<path fill="none" stroke="#313C85" stroke-width="5" stroke-linecap="round" stroke-linejoin="round" stroke-miterlimit="10" d="
			M443.353,426h34v-26c0-2.209-1.791-4-4-4h-26c-2.209,0-4,1.791-4,4V426z"/>
		<path fill="#DBDBCE" d="M443.353,426h-34v-30h30c2.209,0,4,1.791,4,4V426z"/>
		<path fill="none" stroke="#313C85" stroke-width="5" stroke-linecap="round" stroke-linejoin="round" stroke-miterlimit="10" d="
			M443.353,426h-34v-30h30c2.209,0,4,1.791,4,4V426z"/>
		<path fill="#DBDBCE" d="M463.353,456h-30v-30h26c2.209,0,4,1.791,4,4V456z"/>
		<path fill="none" stroke="#313C85" stroke-width="5" stroke-linecap="round" stroke-linejoin="round" stroke-miterlimit="10" d="
			M463.353,456h-30v-30h26c2.209,0,4,1.791,4,4V456z"/>
		<path fill="#DBDBCE" d="M463.353,456h26v-26c0-2.209-1.791-4-4-4h-18c-2.209,0-4,1.791-4,4V456z"/>
		<path fill="none" stroke="#313C85" stroke-width="5" stroke-linecap="round" stroke-linejoin="round" stroke-miterlimit="10" d="
			M463.353,456h26v-26c0-2.209-1.791-4-4-4h-18c-2.209,0-4,1.791-4,4V456z"/>
		<path fill="#DBDBCE" d="M463.353,456h26v-26c0-2.209-1.791-4-4-4h-18c-2.209,0-4,1.791-4,4V456z"/>
		<path fill="none" stroke="#313C85" stroke-width="5" stroke-linecap="round" stroke-linejoin="round" stroke-miterlimit="10" d="
			M463.353,456h26v-26c0-2.209-1.791-4-4-4h-18c-2.209,0-4,1.791-4,4V456z"/>
		<path fill="#F2F2EE" d="M463.353,456l5.25-21.275c0.439-1.786,2.043-3.042,3.883-3.042h16.867V426h-26V456z"/>
		<path fill="none" stroke="#313C85" stroke-width="5" stroke-linecap="round" stroke-linejoin="round" stroke-miterlimit="10" d="
			M463.353,456h26v-26c0-2.209-1.791-4-4-4h-18c-2.209,0-4,1.791-4,4V456z"/>
		<polygon fill="#BABAAF" points="433.353,456 463.353,456 463.353,444.875 417.1,388.247 		"/>
		<path fill="none" stroke="#313C85" stroke-width="5" stroke-linecap="round" stroke-linejoin="round" stroke-miterlimit="10" d="
			M477.353,426h-34v-26c0-2.209,1.791-4,4-4h26c2.209,0,4,1.791,4,4V426z"/>
		<path fill="none" stroke="#313C85" stroke-width="5" stroke-linecap="round" stroke-linejoin="round" stroke-miterlimit="10" d="
			M443.353,426h-34v-30h30c2.209,0,4,1.791,4,4V426z"/>
		<path fill="none" stroke="#313C85" stroke-width="5" stroke-linecap="round" stroke-linejoin="round" stroke-miterlimit="10" d="
			M463.353,456h-30v-30h26c2.209,0,4,1.791,4,4V456z"/>
		<path fill="none" stroke="#313C85" stroke-width="5" stroke-linecap="round" stroke-linejoin="round" stroke-miterlimit="10" d="
			M463.353,456h26v-26c0-2.209-1.791-4-4-4h-18c-2.209,0-4,1.791-4,4V456z"/>
		<g id="门">
			<path fill="#DBDBCE" d="M433.353,456h-68v-36c0-18.778,15.223-34,34-34c18.778,0,34,15.222,34,34V456z"/>
			<path fill="none" stroke="#313C85" stroke-width="5" stroke-linecap="round" stroke-linejoin="round" stroke-miterlimit="10" d="
				M433.353,456h-68v-36c0-18.778,15.223-34,34-34c18.778,0,34,15.222,34,34V456z"/>
			<path fill="#EB9558" d="M423.353,456h-48v-36c0-13.255,10.745-24,24-24c13.255,0,24,10.745,24,24V456z"/>
			<path fill="none" stroke="#313C85" stroke-width="5" stroke-linecap="round" stroke-linejoin="round" stroke-miterlimit="10" d="
				M423.353,456h-48v-36c0-13.255,10.745-24,24-24c13.255,0,24,10.745,24,24V456z"/>
			<path fill="#C87F4B" d="M402.353,396.193c-0.984-0.123-1.983-0.193-3-0.193c-13.255,0-24,10.745-24,24v36h6v-36
				C381.353,407.762,390.515,397.67,402.353,396.193"/>
			<path fill="none" stroke="#313C85" stroke-width="5" stroke-linecap="round" stroke-linejoin="round" stroke-miterlimit="10" d="
				M423.353,456h-48v-36c0-13.255,10.745-24,24-24c13.255,0,24,10.745,24,24V456z"/>
			
				<line fill="none" stroke="#313C85" stroke-width="5" stroke-linecap="round" stroke-linejoin="round" stroke-miterlimit="10" x1="391.352" y1="397.365" x2="391.352" y2="456"/>
			
				<line fill="none" stroke="#313C85" stroke-width="5" stroke-linecap="round" stroke-linejoin="round" stroke-miterlimit="10" x1="407.353" y1="397.365" x2="407.353" y2="456"/>
			
				<line fill="none" stroke="#313C85" stroke-width="5" stroke-linecap="round" stroke-linejoin="round" stroke-miterlimit="10" x1="415.353" y1="423.715" x2="415.353" y2="428.715"/>
		</g>
	</g>
	<g id="窗子2">
		<path fill="#FFDE38" d="M409.353,271.833h-20v-14c0-5.523,4.478-10,10-10c5.523,0,10,4.477,10,10V271.833z"/>
		<path fill="none" stroke="#313C85" stroke-width="5" stroke-linecap="round" stroke-linejoin="round" stroke-miterlimit="10" d="
			M409.353,271.833h-20v-14c0-5.523,4.478-10,10-10c5.523,0,10,4.477,10,10V271.833z"/>
		
			<line fill="none" stroke="#313C85" stroke-width="5" stroke-linecap="round" stroke-linejoin="round" stroke-miterlimit="10" x1="383.352" y1="271.833" x2="415.353" y2="271.833"/>
	</g>
	<g id="窗子1">
		<path fill="#FFDE38" d="M409.353,340.916h-20v-14c0-5.521,4.478-10,10-10c5.523,0,10,4.479,10,10V340.916z"/>
		<path fill="none" stroke="#313C85" stroke-width="5" stroke-linecap="round" stroke-linejoin="round" stroke-miterlimit="10" d="
			M409.353,340.916h-20v-14c0-5.521,4.478-10,10-10c5.523,0,10,4.479,10,10V340.916z"/>
		
			<line fill="none" stroke="#313C85" stroke-width="5" stroke-linecap="round" stroke-linejoin="round" stroke-miterlimit="10" x1="383.352" y1="340.916" x2="415.353" y2="340.916"/>
	</g>
	<g id="细节_1_">
		<path fill="#313C85" d="M476.854,446c0,1.381-1.118,2.5-2.5,2.5c-1.38,0-2.5-1.119-2.5-2.5s1.12-2.5,2.5-2.5
			C475.735,443.5,476.854,444.619,476.854,446"/>
		
			<line fill="none" stroke="#313C85" stroke-width="5" stroke-linecap="round" stroke-linejoin="round" stroke-miterlimit="10" x1="321.352" y1="406" x2="326.352" y2="406"/>
		
			<line fill="none" stroke="#313C85" stroke-width="5" stroke-linecap="round" stroke-linejoin="round" stroke-miterlimit="10" x1="345.352" y1="416" x2="355.352" y2="416"/>
		
			<line fill="none" stroke="#313C85" stroke-width="5" stroke-linecap="round" stroke-linejoin="round" stroke-miterlimit="10" x1="355.08" y1="446" x2="365.08" y2="446"/>
		
			<line fill="none" stroke="#313C85" stroke-width="5" stroke-linecap="round" stroke-linejoin="round" stroke-miterlimit="10" x1="443.353" y1="416" x2="453.353" y2="416"/>
		
			<line fill="none" stroke="#313C85" stroke-width="5" stroke-linecap="round" stroke-linejoin="round" stroke-miterlimit="10" x1="481.354" y1="446" x2="489.354" y2="446"/>
	</g>
</g>
<g id="灯塔上部">
	<g id="灯">
		<path fill="#CACBCE" d="M439.353,216h-80c-5.522,0-10-4.477-10-10h100C449.353,211.523,444.875,216,439.353,216"/>
		<path fill="none" stroke="#313C85" stroke-width="5" stroke-linecap="round" stroke-linejoin="round" stroke-miterlimit="10" d="
			M439.353,216h-80c-5.522,0-10-4.477-10-10h100C449.353,211.523,444.875,216,439.353,216z"/>
		<path fill="#E6E7EB" d="M448.353,206h-98c-8.284,0-15-6.716-15-15h128C463.353,199.284,456.637,206,448.353,206"/>
		<path fill="none" stroke="#313C85" stroke-width="5" stroke-linecap="round" stroke-linejoin="round" stroke-miterlimit="10" d="
			M448.353,206h-98c-8.284,0-15-6.716-15-15h128C463.353,199.284,456.637,206,448.353,206z"/>
		<path fill="#E6E7EB" d="M448.353,126h-98c-8.284,0-15,6.716-15,15h128C463.353,132.716,456.637,126,448.353,126"/>
		<path fill="none" stroke="#313C85" stroke-width="5" stroke-linecap="round" stroke-linejoin="round" stroke-miterlimit="10" d="
			M448.353,126h-98c-8.284,0-15,6.716-15,15h128C463.353,132.716,456.637,126,448.353,126z"/>
		<rect x="354.352" y="141" fill="#FFDE38" width="90" height="50"/>
		
			<rect x="354.352" y="141" fill="none" stroke="#313C85" stroke-width="5" stroke-linecap="round" stroke-linejoin="round" stroke-miterlimit="10" width="90" height="50"/>
		<path fill="#FFF8CC" d="M414.353,165.75c0,8.284-6.716,15-15,15c-8.284,0-15-6.716-15-15s6.716-15,15-15
			C407.637,150.75,414.353,157.466,414.353,165.75"/>
		
			<circle fill="none" stroke="#313C85" stroke-width="5" stroke-linecap="round" stroke-linejoin="round" stroke-miterlimit="10" cx="399.352" cy="165.75" r="15"/>
		
			<rect x="354.352" y="141" fill="none" stroke="#313C85" stroke-width="5" stroke-linecap="round" stroke-linejoin="round" stroke-miterlimit="10" width="90" height="50"/>
		
			<line fill="none" stroke="#313C85" stroke-width="5" stroke-linecap="round" stroke-linejoin="round" stroke-miterlimit="10" x1="370.352" y1="141" x2="370.352" y2="191"/>
		
			<line fill="none" stroke="#313C85" stroke-width="5" stroke-linecap="round" stroke-linejoin="round" stroke-miterlimit="10" x1="428.353" y1="141" x2="428.353" y2="191"/>
	</g>
	<g id="反射">
		<g opacity="0.5">
			<polygon fill="#FFFFFF" points="424.728,141 384.352,141 354.352,171 354.352,191 374.727,191 			"/>
			<rect x="354.352" y="141" fill="none" width="70.375" height="50"/>
		</g>
		<g opacity="0.5">
			<polygon fill="#FFFFFF" points="444.353,161.375 444.353,141 394.352,191 414.728,191 			"/>
			<rect x="394.352" y="141" fill="none" width="50" height="50"/>
		</g>
	</g>
	<g id="灯帽">
		<polygon fill="#FF5266" points="354.352,126 400.353,90 444.353,126 		"/>
		
			<polygon fill="none" stroke="#313C85" stroke-width="5" stroke-linecap="round" stroke-linejoin="round" stroke-miterlimit="10" points="
			354.352,126 400.353,90 444.353,126 		"/>
		
			<line fill="none" stroke="#313C85" stroke-width="5" stroke-linecap="round" stroke-linejoin="round" stroke-miterlimit="10" x1="400.353" y1="90" x2="400.353" y2="65"/>
		<polygon fill="#8BE3FF" points="424.353,72.5 400.353,65 400.353,80 		"/>
		
			<polygon fill="none" stroke="#313C85" stroke-width="5" stroke-linecap="round" stroke-linejoin="round" stroke-miterlimit="10" points="
			424.353,72.5 400.353,65 400.353,80 		"/>
		
			<line fill="none" stroke="#313C85" stroke-width="5" stroke-linecap="round" stroke-linejoin="round" stroke-miterlimit="10" x1="432.13" y1="116" x2="412.13" y2="116"/>
		<path fill="#313C85" d="M404.63,116c0,1.381-1.119,2.5-2.5,2.5c-1.38,0-2.5-1.119-2.5-2.5s1.12-2.5,2.5-2.5
			C403.511,113.5,404.63,114.619,404.63,116"/>
		<path fill="#FF8E9B" d="M414.946,101.94L400.353,90l-46,36h15.481l26.016-23.361c3.854-3.461,9.324-4.467,14.157-2.603
			L414.946,101.94z"/>
		
			<polygon fill="none" stroke="#313C85" stroke-width="5" stroke-linecap="round" stroke-linejoin="round" stroke-miterlimit="10" points="
			354.352,126 400.353,90 444.353,126 		"/>
	</g>
</g>
</svg>
